<svg version="1.1" id="Layer_1" xmlns="http://www.w3.org/2000/svg" xmlns:xlink="http://www.w3.org/1999/xlink" x="0px" y="0px"
	 width="100%" viewBox="0 0 140 140" enable-background="new 0 0 140 140" xml:space="preserve">
<path fill="#F6F2F2" opacity="1.000000" stroke="none" 
	d="
M141.000000,64.000000 
	C141.000000,89.977211 141.000000,115.454430 141.000000,140.965820 
	C94.397835,140.965820 47.795643,140.965820 1.096725,140.965820 
	C1.096725,94.439697 1.096725,47.879120 1.096725,1.159272 
	C47.666233,1.159272 94.333061,1.159272 141.000000,1.159272 
	C141.000000,21.870609 141.000000,42.685303 141.000000,64.000000 
M124.916946,37.204475 
	C124.848366,36.444569 124.779785,35.684662 124.964668,34.320976 
	C125.100204,33.907379 125.235741,33.493782 126.035751,32.859154 
	C125.768181,30.887175 125.500610,28.915195 124.848579,26.407465 
	C123.975975,25.832256 123.103378,25.257050 122.369347,24.652773 
	C122.369347,24.652773 122.379433,24.511553 122.060829,23.796907 
	C119.066742,23.458958 116.072655,23.121010 113.044258,22.008917 
	C111.890938,19.814569 116.596954,16.663563 111.419739,14.821690 
	C111.335060,14.663947 111.250374,14.506206 111.091492,13.603446 
	C103.387833,13.437147 95.684181,13.270849 87.155853,13.187409 
	C85.776047,13.154720 84.396233,13.122031 82.442665,12.477097 
	C75.623245,12.680043 68.803825,12.882991 61.116913,13.176908 
	C59.083393,13.147603 57.049877,13.118299 54.442493,12.476882 
	C47.623173,12.679636 40.803848,12.882390 33.161633,13.176090 
	C31.783262,13.145051 30.404890,13.114011 28.737589,12.617968 
	C28.089495,13.142070 27.441402,13.666171 26.486118,14.667749 
	C26.337734,14.785214 26.189348,14.902678 25.317482,15.109718 
	C25.182825,17.659142 25.048168,20.208563 24.047541,22.889992 
	C21.131319,23.463284 18.215099,24.036577 14.640869,24.798706 
	C13.919353,26.160509 13.197835,27.522312 11.912261,29.122358 
	C12.111530,30.452883 12.310800,31.783405 12.712635,33.906872 
	C12.837906,35.264839 12.963177,36.622810 12.555534,38.363247 
	C13.235882,39.943165 13.916230,41.523079 14.835316,43.707264 
	C14.906361,44.133518 14.977406,44.559772 14.596265,45.287315 
	C15.173814,45.915642 15.751364,46.543972 16.732525,47.755096 
	C19.651155,52.316914 23.068842,56.239296 28.780279,57.183647 
	C28.780279,57.183647 28.798203,57.213474 29.051088,57.751957 
	C29.742416,57.900917 30.433744,58.049873 31.801285,58.647076 
	C32.869255,58.757442 33.937222,58.867809 35.491096,59.437843 
	C37.392834,61.954292 39.294571,64.470741 41.203762,67.601280 
	C41.759178,68.172455 42.314594,68.743637 42.979301,69.965462 
	C46.456051,73.422791 49.932804,76.880119 53.797348,80.931168 
	C54.454308,81.441437 55.057362,82.049324 55.776745,82.446533 
	C61.593628,85.658363 62.415932,88.146461 59.674706,94.391075 
	C59.141151,95.606537 58.641743,96.836990 57.645798,98.439545 
	C56.762501,98.933044 55.879204,99.426544 54.299156,99.878532 
	C53.516018,100.348663 52.732880,100.818794 51.837902,100.801025 
	C51.282410,101.230545 50.726913,101.660072 49.673340,102.485703 
	C48.808022,103.047440 47.942703,103.609169 46.326813,104.310432 
	C44.983414,104.887962 43.687859,105.776428 42.288723,105.991722 
	C34.213440,107.234299 34.230869,107.181038 34.040970,115.089584 
	C33.985615,117.394798 33.525936,119.706696 33.648109,121.994354 
	C33.738762,123.691704 34.470379,125.354820 35.172741,127.791794 
	C36.376202,128.180542 37.578499,128.903900 38.783306,128.908096 
	C58.697636,128.977509 78.612381,128.924530 98.526772,128.984558 
	C102.219841,128.995697 103.565132,127.115509 103.572052,123.748756 
	C103.580917,119.433968 103.732986,115.113388 103.537918,110.808235 
	C103.483704,109.611732 102.419205,108.461006 101.032890,106.950050 
	C95.176788,108.009552 91.490570,103.773163 87.029610,100.915344 
	C86.853485,100.754089 86.646248,100.680420 86.076683,100.164696 
	C85.341919,99.962402 84.607155,99.760109 83.236519,99.198685 
	C81.496384,97.130737 79.756241,95.062798 78.522705,92.514503 
	C78.353439,89.682953 78.184181,86.851402 77.999390,84.000305 
	C77.999390,84.000305 78.019493,84.013878 78.762939,84.063644 
	C80.206276,83.116348 81.649620,82.169060 83.386360,80.770607 
	C83.727676,80.356804 84.068985,79.943001 85.100235,79.415298 
	C87.866508,76.635231 90.632790,73.855156 94.049316,70.944923 
	C95.377213,69.094604 96.519989,67.066681 98.080772,65.439789 
	C99.950493,63.490852 101.955948,61.470619 104.297096,60.219269 
	C108.587135,57.926224 113.551010,56.740700 117.521545,54.044369 
	C121.844955,51.108391 124.297554,46.482033 123.988068,40.945820 
	C123.988068,40.945820 123.859863,40.902737 124.529915,40.923050 
	C124.664558,39.941456 124.799202,38.959866 124.916946,37.204475 
z"/>
<path fill="#E11C1C" opacity="1.000000" stroke="none" 
	d="
M47.077385,104.170906 
	C47.942703,103.609169 48.808022,103.047440 50.198349,102.324181 
	C51.132149,101.871414 51.540943,101.580170 51.949741,101.288925 
	C52.732880,100.818794 53.516018,100.348663 54.648788,100.286270 
	C54.998787,101.467941 54.999153,102.241859 54.733238,103.166870 
	C53.621964,103.868668 52.776970,104.419388 51.611443,104.997093 
	C51.040768,105.490799 50.790627,105.957512 50.540485,106.424232 
	C51.391834,106.595184 52.243183,106.766144 53.556091,106.902145 
	C61.004562,106.877586 67.991470,106.887993 75.191132,107.163277 
	C76.609596,107.249512 77.815315,107.070869 79.449883,106.845833 
	C81.887329,106.845688 83.895927,106.891945 86.241714,106.992310 
	C87.200867,106.750183 87.822838,106.453949 88.444801,106.157715 
	C87.923119,105.796722 87.401436,105.435730 86.900543,105.061012 
	C86.921349,105.047287 86.901413,105.098167 86.941612,104.617691 
	C87.022903,103.172623 87.063995,102.208023 87.105080,101.243431 
	C91.490570,103.773163 95.176788,108.009552 101.454765,107.567474 
	C101.962494,112.825203 101.922958,117.472313 102.174477,122.103607 
	C102.370537,125.713837 101.023323,127.160965 97.314186,127.133896 
	C76.905716,126.984917 56.496094,126.993210 35.999359,126.489716 
	C35.884193,121.578995 36.033127,117.115753 35.772789,112.676498 
	C35.565983,109.150131 36.565487,107.781281 40.391357,107.615013 
	C42.665630,107.516174 44.851673,105.387161 47.077385,104.170906 
M98.174767,110.849297 
	C98.174767,110.849297 98.143021,110.761688 97.875069,110.024353 
	C97.613876,109.825500 97.353638,109.453903 97.091347,109.452446 
	C78.446175,109.348686 59.799629,109.175415 41.158001,109.402359 
	C39.797070,109.418930 37.137089,112.611649 37.383507,113.880577 
	C38.082981,117.482536 33.908234,122.682175 41.246124,124.598381 
	C49.527164,124.594887 57.808636,124.643150 66.089142,124.574997 
	C76.834946,124.486542 87.579987,124.305435 98.855034,124.092041 
	C98.928589,123.396858 99.002151,122.701668 99.036148,121.333847 
	C99.057640,120.885582 99.079140,120.437309 99.611649,119.400032 
	C99.163139,116.543655 98.714630,113.687286 98.174767,110.849297 
z"/>
<path fill="#E01818" opacity="1.000000" stroke="none" 
	d="
M111.165688,14.348463 
	C111.250374,14.506206 111.335060,14.663947 111.604912,15.325748 
	C111.518997,17.898094 111.247902,19.966379 110.964325,22.443325 
	C114.227959,27.075909 118.525391,24.267174 122.379433,24.511553 
	C122.379433,24.511553 122.369347,24.652773 122.228729,25.086573 
	C122.052864,26.363913 122.017609,27.207453 121.594620,27.907448 
	C108.855911,25.808992 108.430481,27.220552 107.502625,33.699337 
	C106.904724,32.547554 106.593597,31.625578 106.387192,30.382328 
	C106.363434,29.650446 106.234940,29.239840 106.294525,28.524197 
	C106.495140,27.510317 106.507683,26.801472 106.694557,25.753880 
	C106.812492,24.920343 106.756111,24.425554 106.823402,23.645529 
	C107.045692,22.957701 107.144302,22.555111 107.578842,22.037512 
	C109.469116,18.612001 109.343925,18.202854 106.311035,17.511051 
	C103.211014,17.412144 100.394096,17.396120 97.577271,17.407215 
	C75.534424,17.494041 53.491600,17.586071 31.159565,17.515255 
	C30.297724,17.572174 29.725090,17.790337 28.844105,18.006172 
	C28.330181,18.002897 28.124611,18.001947 27.900833,17.584585 
	C27.854893,16.336220 27.827158,15.504270 27.946068,14.577441 
	C28.092709,14.482564 28.416544,14.351594 28.801968,14.531553 
	C30.766315,14.548439 32.345242,14.385366 34.393105,14.156539 
	C41.600212,14.136762 48.338383,14.182738 55.341209,14.477549 
	C57.712502,14.558552 59.819138,14.390721 62.394577,14.156933 
	C69.600510,14.137085 76.337631,14.183195 83.305290,14.469431 
	C84.998466,14.552030 86.461113,14.394502 88.343002,14.181945 
	C96.230064,14.200765 103.697876,14.274614 111.165688,14.348463 
z"/>
<path fill="#E11A1A" opacity="1.000000" stroke="none" 
	d="
M121.982361,28.050993 
	C122.017609,27.207453 122.052864,26.363913 122.159454,25.101109 
	C123.103378,25.257050 123.975975,25.832256 124.955162,27.109314 
	C125.164925,29.567503 125.268097,31.323843 125.371277,33.080185 
	C125.235741,33.493782 125.100204,33.907379 124.545242,34.681374 
	C124.025002,36.020943 123.924171,37.000118 123.824249,38.348602 
	C123.836716,39.446186 123.848289,40.174461 123.859863,40.902737 
	C123.859863,40.902737 123.988068,40.945820 123.572830,40.978714 
	C120.623238,48.543503 116.829773,55.185818 108.400192,56.948956 
	C102.412636,58.201321 97.590347,60.346519 95.194000,66.352211 
	C95.031410,66.759705 94.121124,66.868874 92.458801,67.601448 
	C93.780899,63.758881 94.784081,60.843204 96.036057,57.769249 
	C96.502678,57.068836 96.720497,56.526707 97.284637,55.861908 
	C98.392044,53.146252 99.153137,50.553261 100.178101,47.763741 
	C100.646240,46.715881 100.850525,45.864555 101.353531,44.917694 
	C101.770218,44.219116 101.888191,43.616074 102.300949,42.906036 
	C103.131386,43.384060 104.212502,44.091282 104.113297,44.534092 
	C103.511566,47.220097 102.358315,49.808491 102.001289,52.510365 
	C101.862312,53.562065 103.761063,55.913055 103.975876,55.825161 
	C106.689484,54.714870 109.264931,53.266933 111.916084,51.933281 
	C111.956520,51.961372 111.914932,51.872112 112.267067,51.886356 
	C113.747253,50.601292 114.875298,49.301983 116.001671,48.001335 
	C116.000000,48.000000 116.002884,48.003197 116.323204,47.896561 
	C117.062752,46.840485 117.481972,45.891041 118.151947,44.732391 
	C118.639473,43.687477 118.876244,42.851765 119.448120,41.853851 
	C120.056870,39.745785 120.330505,37.799908 120.660736,35.470947 
	C120.843300,34.066334 120.969284,33.044804 121.430664,31.867367 
	C121.838158,30.491304 121.910255,29.271149 121.982361,28.050993 
z"/>
<path fill="#E97070" opacity="1.000000" stroke="none" 
	d="
M36.086868,126.947540 
	C56.496094,126.993210 76.905716,126.984917 97.314186,127.133896 
	C101.023323,127.160965 102.370537,125.713837 102.174477,122.103607 
	C101.922958,117.472313 101.962494,112.825203 101.847427,107.737091 
	C102.419205,108.461006 103.483704,109.611732 103.537918,110.808235 
	C103.732986,115.113388 103.580917,119.433968 103.572052,123.748756 
	C103.565132,127.115509 102.219841,128.995697 98.526772,128.984558 
	C78.612381,128.924530 58.697636,128.977509 38.783306,128.908096 
	C37.578499,128.903900 36.376202,128.180542 35.337280,127.391357 
	C35.696838,126.976471 35.891853,126.962013 36.086868,126.947540 
z"/>
<path fill="#E01717" opacity="1.000000" stroke="none" 
	d="
M54.999523,103.015785 
	C54.999153,102.241859 54.998787,101.467941 54.997162,100.307037 
	C55.879204,99.426544 56.762501,98.933044 58.242455,98.215981 
	C64.687019,92.135155 64.229050,85.671585 57.738449,81.664200 
	C57.292130,81.388626 57.181557,80.569252 57.010529,79.932617 
	C57.106213,79.862457 57.194660,79.642258 57.579407,79.730392 
	C66.870728,83.578812 75.257149,83.028572 83.130356,77.147308 
	C83.671478,78.171219 84.040894,78.850212 84.410301,79.529198 
	C84.068985,79.943001 83.727676,80.356804 82.891983,80.933273 
	C80.938232,82.068588 79.478867,83.041237 78.019493,84.013885 
	C78.019493,84.013878 77.999390,84.000305 77.647018,84.166794 
	C76.993530,87.188316 76.692413,90.043365 75.894447,93.079094 
	C75.067375,93.382935 74.737137,93.506096 74.384468,93.569832 
	C74.362030,93.510414 74.357529,93.383461 74.524353,93.096565 
	C74.267738,92.170242 73.844299,91.530815 73.313057,90.481712 
	C73.544403,86.302162 72.137650,84.753716 68.070946,84.987022 
	C63.958412,85.222969 64.295425,87.722748 64.195923,90.457764 
	C63.936157,97.598442 60.445557,102.291588 54.999523,103.015785 
z"/>
<path fill="#F1C7C7" opacity="1.000000" stroke="none" 
	d="
M95.787262,57.927528 
	C94.784081,60.843204 93.780899,63.758881 92.458801,67.601448 
	C94.121124,66.868874 95.031410,66.759705 95.194000,66.352211 
	C97.590347,60.346519 102.412636,58.201321 108.400192,56.948956 
	C116.829773,55.185818 120.623238,48.543503 123.519089,40.937668 
	C124.297554,46.482033 121.844955,51.108391 117.521545,54.044369 
	C113.551010,56.740700 108.587135,57.926224 104.297096,60.219269 
	C101.955948,61.470619 99.950493,63.490852 98.080772,65.439789 
	C96.519989,67.066681 95.377213,69.094604 93.650085,70.662567 
	C92.688805,69.871002 91.987610,68.841873 91.590263,68.948204 
	C90.298111,69.293999 89.117104,70.055161 87.905479,70.310028 
	C90.540848,65.951599 93.164055,61.939560 95.787262,57.927528 
z"/>
<path fill="#E43E3E" opacity="1.000000" stroke="none" 
	d="
M28.811678,57.182514 
	C23.068842,56.239296 19.651155,52.316914 16.612862,47.182899 
	C16.011616,46.069141 15.530033,45.527584 15.048450,44.986027 
	C14.977406,44.559772 14.906361,44.133518 14.795403,43.059784 
	C14.199810,40.935127 13.644129,39.457951 13.088448,37.980778 
	C12.963177,36.622810 12.837906,35.264839 12.739287,33.097816 
	C12.669399,31.153879 12.572860,30.018999 12.476318,28.884117 
	C13.197835,27.522312 13.919353,26.160509 15.357389,24.815319 
	C16.338015,24.873840 16.602118,24.915749 16.995209,25.242004 
	C17.401335,26.076757 17.678476,26.627159 17.729481,27.509003 
	C15.350550,38.508114 19.812670,48.668591 28.985718,54.431496 
	C28.912523,55.610657 28.862101,56.396587 28.811678,57.182514 
z"/>
<path fill="#E43E3E" opacity="1.000000" stroke="none" 
	d="
M41.196312,66.987190 
	C39.294571,64.470741 37.392834,61.954292 35.283218,58.856331 
	C36.128136,57.502335 37.180927,56.729855 38.516846,56.054291 
	C39.517696,56.460621 40.235424,56.770039 41.005882,57.434509 
	C44.566154,66.014503 49.129578,73.387184 57.244289,78.168060 
	C57.211151,78.855919 57.202908,79.249084 57.194660,79.642258 
	C57.194660,79.642258 57.106213,79.862457 56.576576,79.977646 
	C55.167812,80.174377 54.288685,80.255913 53.409554,80.337448 
	C49.932804,76.880119 46.456051,73.422791 42.938324,69.307648 
	C42.330338,68.095627 41.763325,67.541405 41.196312,66.987190 
z"/>
<path fill="#E12121" opacity="1.000000" stroke="none" 
	d="
M38.233719,55.957375 
	C37.180927,56.729855 36.128136,57.502335 35.040268,58.626495 
	C33.937222,58.867809 32.869255,58.757442 31.349804,58.159882 
	C30.198282,57.519619 29.498241,57.366547 28.798203,57.213474 
	C28.798203,57.213474 28.780279,57.183647 28.795979,57.183083 
	C28.862101,56.396587 28.912523,55.610657 29.328186,54.445114 
	C31.136452,54.437618 32.579475,54.809738 34.022503,55.181854 
	C33.893051,53.691803 33.960274,52.152466 33.601250,50.719952 
	C31.707624,43.164375 29.706520,35.635738 28.099991,28.039894 
	C29.021879,27.573450 29.586479,27.164869 30.465286,27.003330 
	C31.664965,31.041990 32.465645,34.855904 33.455570,38.620052 
	C34.980122,44.417088 36.634445,50.179993 38.233719,55.957375 
z"/>
<path fill="#E75E5E" opacity="1.000000" stroke="none" 
	d="
M35.999359,126.489716 
	C35.891853,126.962013 35.696838,126.976471 35.209152,127.012054 
	C34.470379,125.354820 33.738762,123.691704 33.648109,121.994354 
	C33.525936,119.706696 33.985615,117.394798 34.040970,115.089584 
	C34.230869,107.181038 34.213440,107.234299 42.288723,105.991722 
	C43.687859,105.776428 44.983414,104.887962 46.702099,104.240669 
	C44.851673,105.387161 42.665630,107.516174 40.391357,107.615013 
	C36.565487,107.781281 35.565983,109.150131 35.772789,112.676498 
	C36.033127,117.115753 35.884193,121.578995 35.999359,126.489716 
z"/>
<path fill="#F1C7C7" opacity="1.000000" stroke="none" 
	d="
M111.128586,13.975955 
	C103.697876,14.274614 96.230064,14.200765 88.365112,13.899099 
	C87.972160,13.482371 87.976341,13.293462 87.980522,13.104551 
	C95.684181,13.270849 103.387833,13.437147 111.128586,13.975955 
z"/>
<path fill="#E54646" opacity="1.000000" stroke="none" 
	d="
M74.406906,93.629250 
	C74.737137,93.506096 75.067375,93.382935 76.166718,93.061707 
	C77.295921,92.907379 77.656013,92.951118 78.016098,92.994858 
	C79.756241,95.062798 81.496384,97.130737 83.679626,99.663391 
	C84.884445,100.316841 85.646172,100.505592 86.407890,100.694344 
	C86.646248,100.680420 86.853485,100.754089 87.067345,101.079391 
	C87.063995,102.208023 87.022903,103.172623 86.579971,104.574959 
	C85.155914,104.468246 84.171448,103.548752 83.105240,103.441460 
	C77.108055,102.837914 75.045502,98.899559 74.406906,93.629250 
z"/>
<path fill="#E54848" opacity="1.000000" stroke="none" 
	d="
M87.893311,70.656433 
	C89.117104,70.055161 90.298111,69.293999 91.590263,68.948204 
	C91.987610,68.841873 92.688805,69.871002 93.324966,70.727646 
	C90.632790,73.855156 87.866508,76.635231 84.755264,79.472244 
	C84.040894,78.850212 83.671478,78.171219 83.100723,76.915115 
	C82.899384,76.337997 82.763626,75.889893 83.056435,75.729301 
	C84.863937,73.931282 86.378624,72.293854 87.893311,70.656433 
z"/>
<path fill="#E75959" opacity="1.000000" stroke="none" 
	d="
M53.603451,80.634308 
	C54.288685,80.255913 55.167812,80.174377 56.480896,80.047806 
	C57.181557,80.569252 57.292130,81.388626 57.738449,81.664200 
	C64.229050,85.671585 64.687019,92.135155 58.482849,98.026474 
	C58.641743,96.836990 59.141151,95.606537 59.674706,94.391075 
	C62.415932,88.146461 61.593628,85.658363 55.776745,82.446533 
	C55.057362,82.049324 54.454308,81.441437 53.603451,80.634308 
z"/>
<path fill="#F1C7C7" opacity="1.000000" stroke="none" 
	d="
M83.074753,14.229305 
	C76.337631,14.183195 69.600510,14.137085 62.418655,13.873039 
	C61.977421,13.465382 61.980915,13.275660 61.984406,13.085938 
	C68.803825,12.882991 75.623245,12.680043 82.734764,13.068649 
	C83.042831,13.849904 83.058792,14.039605 83.074753,14.229305 
z"/>
<path fill="#F1C7C7" opacity="1.000000" stroke="none" 
	d="
M55.076553,14.228714 
	C48.338383,14.182738 41.600212,14.136762 34.417732,13.872615 
	C33.977123,13.464678 33.980824,13.274912 33.984528,13.085145 
	C40.803848,12.882390 47.623173,12.679636 54.734890,13.068335 
	C55.043713,13.849430 55.060135,14.039073 55.076553,14.228714 
z"/>
<path fill="#E54A4A" opacity="1.000000" stroke="none" 
	d="
M16.866222,24.957657 
	C16.602118,24.915749 16.338015,24.873840 15.686394,24.720901 
	C18.215099,24.036577 21.131319,23.463284 24.767805,22.888206 
	C26.003216,22.609709 26.518362,22.332996 27.042225,22.458530 
	C24.405270,27.198837 20.162045,23.777441 16.866222,24.957657 
z"/>
<path fill="#E54A4A" opacity="1.000000" stroke="none" 
	d="
M122.220131,24.154230 
	C118.525391,24.267174 114.227959,27.075909 111.211853,22.602104 
	C112.007431,22.495836 112.542999,22.639448 113.078568,22.783058 
	C116.072655,23.121010 119.066742,23.458958 122.220131,24.154230 
z"/>
<path fill="#F1C7C7" opacity="1.000000" stroke="none" 
	d="
M78.269402,92.754684 
	C77.656013,92.951118 77.295921,92.907379 76.663559,92.881027 
	C76.692413,90.043365 76.993530,87.188316 77.654785,84.176559 
	C78.184181,86.851402 78.353439,89.682953 78.269402,92.754684 
z"/>
<path fill="#F1C7C7" opacity="1.000000" stroke="none" 
	d="
M27.033508,22.056284 
	C26.518362,22.332996 26.003216,22.609709 25.200790,22.822205 
	C25.048168,20.208563 25.182825,17.659142 25.721827,15.439376 
	C26.415043,17.179977 26.703915,18.590921 26.977543,20.344307 
	C26.986036,21.143261 27.009771,21.599771 27.033508,22.056284 
z"/>
<path fill="#F1C7C7" opacity="1.000000" stroke="none" 
	d="
M113.061417,22.395988 
	C112.542999,22.639448 112.007431,22.495836 111.224335,22.193445 
	C111.247902,19.966379 111.518997,17.898094 111.848801,15.438185 
	C116.596954,16.663563 111.890938,19.814569 113.061417,22.395988 
z"/>
<path fill="#E54A4A" opacity="1.000000" stroke="none" 
	d="
M55.341209,14.477549 
	C55.060135,14.039073 55.043713,13.849430 55.021820,13.374390 
	C57.049877,13.118299 59.083393,13.147603 61.550659,13.131423 
	C61.980915,13.275660 61.977421,13.465382 61.949848,13.938996 
	C59.819138,14.390721 57.712502,14.558552 55.341209,14.477549 
z"/>
<path fill="#F1C7C7" opacity="1.000000" stroke="none" 
	d="
M125.703514,32.969669 
	C125.268097,31.323843 125.164925,29.567503 125.147385,27.377190 
	C125.500610,28.915195 125.768181,30.887175 125.703514,32.969669 
z"/>
<path fill="#F1C7C7" opacity="1.000000" stroke="none" 
	d="
M12.821991,38.172012 
	C13.644129,39.457951 14.199810,40.935127 14.676035,42.757648 
	C13.916230,41.523079 13.235882,39.943165 12.821991,38.172012 
z"/>
<path fill="#E54A4A" opacity="1.000000" stroke="none" 
	d="
M33.573082,13.130617 
	C33.980824,13.274912 33.977123,13.464678 33.948792,13.938369 
	C32.345242,14.385366 30.766315,14.548439 28.920570,14.326032 
	C28.891291,13.703955 29.015547,13.418095 29.026520,13.082972 
	C30.404890,13.114011 31.783262,13.145051 33.573082,13.130617 
z"/>
<path fill="#F1C7C7" opacity="1.000000" stroke="none" 
	d="
M78.391220,84.038765 
	C79.478867,83.041237 80.938232,82.068588 82.745285,81.158859 
	C81.649620,82.169060 80.206276,83.116348 78.391220,84.038765 
z"/>
<path fill="#E54A4A" opacity="1.000000" stroke="none" 
	d="
M26.992786,20.001865 
	C26.703915,18.590921 26.415043,17.179977 26.083565,15.394588 
	C26.189348,14.902678 26.337734,14.785214 26.880451,14.573586 
	C27.449665,14.543720 27.624546,14.608019 27.799425,14.672318 
	C27.827158,15.504270 27.854893,16.336220 27.879776,17.875683 
	C27.582214,19.056084 27.287500,19.528975 26.992786,20.001865 
z"/>
<path fill="#E54A4A" opacity="1.000000" stroke="none" 
	d="
M83.305290,14.469431 
	C83.058792,14.039605 83.042831,13.849904 83.021645,13.374771 
	C84.396233,13.122031 85.776047,13.154720 87.568192,13.145981 
	C87.976341,13.293462 87.972160,13.482371 87.945862,13.954128 
	C86.461113,14.394502 84.998466,14.552030 83.305290,14.469431 
z"/>
<path fill="#F1C7C7" opacity="1.000000" stroke="none" 
	d="
M12.194290,29.003239 
	C12.572860,30.018999 12.669399,31.153879 12.638004,32.701347 
	C12.310800,31.783405 12.111530,30.452883 12.194290,29.003239 
z"/>
<path fill="#E54A4A" opacity="1.000000" stroke="none" 
	d="
M123.823349,37.979290 
	C123.924171,37.000118 124.025002,36.020943 124.418518,34.983261 
	C124.779785,35.684662 124.848366,36.444569 124.647812,37.598316 
	C124.193565,37.987869 124.008461,37.983582 123.823349,37.979290 
z"/>
<path fill="#F1C7C7" opacity="1.000000" stroke="none" 
	d="
M14.822357,45.136673 
	C15.530033,45.527584 16.011616,46.069141 16.411057,46.891502 
	C15.751364,46.543972 15.173814,45.915642 14.822357,45.136673 
z"/>
<path fill="#F1C7C7" opacity="1.000000" stroke="none" 
	d="
M123.824249,38.348602 
	C124.008461,37.983582 124.193565,37.987869 124.656258,37.985214 
	C124.799202,38.959866 124.664558,39.941456 124.194885,40.912895 
	C123.848289,40.174461 123.836716,39.446186 123.824249,38.348602 
z"/>
<path fill="#F1C7C7" opacity="1.000000" stroke="none" 
	d="
M27.946068,14.577441 
	C27.624546,14.608019 27.449665,14.543720 27.034046,14.334846 
	C27.441402,13.666171 28.089495,13.142070 28.882053,12.850470 
	C29.015547,13.418095 28.891291,13.703955 28.535149,14.146072 
	C28.416544,14.351594 28.092709,14.482564 27.946068,14.577441 
z"/>
<path fill="#E54A4A" opacity="1.000000" stroke="none" 
	d="
M41.200035,67.294235 
	C41.763325,67.541405 42.330338,68.095627 42.883682,68.982330 
	C42.314594,68.743637 41.759178,68.172455 41.200035,67.294235 
z"/>
<path fill="#E75E5E" opacity="1.000000" stroke="none" 
	d="
M51.893822,101.044975 
	C51.540943,101.580170 51.132149,101.871414 50.447388,102.126129 
	C50.726913,101.660072 51.282410,101.230545 51.893822,101.044975 
z"/>
<path fill="#E97070" opacity="1.000000" stroke="none" 
	d="
M86.242287,100.429520 
	C85.646172,100.505592 84.884445,100.316841 83.997559,99.842957 
	C84.607155,99.760109 85.341919,99.962402 86.242287,100.429520 
z"/>
<path fill="#E54A4A" opacity="1.000000" stroke="none" 
	d="
M28.924644,57.482716 
	C29.498241,57.366547 30.198282,57.519619 31.011696,57.935760 
	C30.433744,58.049873 29.742416,57.900917 28.924644,57.482716 
z"/>
<path fill="#F5ECEC" opacity="1.000000" stroke="none" 
	d="
M98.325356,124.164200 
	C87.579987,124.305435 76.834946,124.486542 66.089142,124.574997 
	C57.808636,124.643150 49.527164,124.594887 40.640770,124.246834 
	C39.693836,122.481148 39.067863,121.069328 39.056309,119.652496 
	C38.974216,109.588730 38.368229,111.127121 47.415936,111.055649 
	C64.324684,110.922058 81.233963,110.855904 98.143021,110.761688 
	C98.143021,110.761688 98.174767,110.849297 98.227913,111.289444 
	C98.554253,114.482742 98.827438,117.235893 99.100632,119.989044 
	C99.079140,120.437309 99.057640,120.885582 98.824081,121.873512 
	C98.516457,122.996857 98.420906,123.580528 98.325356,124.164200 
z"/>
<path fill="#F3D4D4" opacity="1.000000" stroke="none" 
	d="
M74.384468,93.569832 
	C75.045502,98.899559 77.108055,102.837914 83.105240,103.441460 
	C84.171448,103.548752 85.155914,104.468246 86.539764,105.055435 
	C86.901413,105.098167 86.921349,105.047287 86.787598,105.298027 
	C86.404068,106.011909 86.154289,106.475060 85.904518,106.938202 
	C83.895927,106.891945 81.887329,106.845688 79.204590,106.655655 
	C77.346420,106.640717 76.162399,106.769562 74.978386,106.898399 
	C67.991470,106.887993 61.004562,106.877586 53.404549,106.659836 
	C52.504955,105.958359 52.218464,105.464233 51.931976,104.970108 
	C52.776970,104.419388 53.621964,103.868668 54.733238,103.166870 
	C60.445557,102.291588 63.936157,97.598442 64.195923,90.457764 
	C64.295425,87.722748 63.958412,85.222969 68.070946,84.987022 
	C72.137650,84.753716 73.544403,86.302162 73.214081,90.769043 
	C73.601120,92.105179 73.979324,92.744324 74.357529,93.383461 
	C74.357529,93.383461 74.362030,93.510414 74.384468,93.569832 
z"/>
<path fill="#E86969" opacity="1.000000" stroke="none" 
	d="
M98.009048,110.393021 
	C81.233963,110.855904 64.324684,110.922058 47.415936,111.055649 
	C38.368229,111.127121 38.974216,109.588730 39.056309,119.652496 
	C39.067863,121.069328 39.693836,122.481148 40.195419,124.262100 
	C33.908234,122.682175 38.082981,117.482536 37.383507,113.880577 
	C37.137089,112.611649 39.797070,109.418930 41.158001,109.402359 
	C59.799629,109.175415 78.446175,109.348686 97.091347,109.452446 
	C97.353638,109.453903 97.613876,109.825500 98.009048,110.393021 
z"/>
<path fill="#E86969" opacity="1.000000" stroke="none" 
	d="
M99.356140,119.694534 
	C98.827438,117.235893 98.554253,114.482742 98.273590,111.280251 
	C98.714630,113.687286 99.163139,116.543655 99.356140,119.694534 
z"/>
<path fill="#E54646" opacity="1.000000" stroke="none" 
	d="
M75.191132,107.163277 
	C76.162399,106.769562 77.346420,106.640717 78.775726,106.702057 
	C77.815315,107.070869 76.609596,107.249512 75.191132,107.163277 
z"/>
<path fill="#E54646" opacity="1.000000" stroke="none" 
	d="
M51.611443,104.997086 
	C52.218464,105.464233 52.504955,105.958359 52.942989,106.694794 
	C52.243183,106.766144 51.391834,106.595184 50.540485,106.424232 
	C50.790627,105.957512 51.040768,105.490799 51.611443,104.997086 
z"/>
<path fill="#E54646" opacity="1.000000" stroke="none" 
	d="
M86.241714,106.992310 
	C86.154289,106.475060 86.404068,106.011909 86.766792,105.311752 
	C87.401436,105.435730 87.923119,105.796722 88.444801,106.157715 
	C87.822838,106.453949 87.200867,106.750183 86.241714,106.992310 
z"/>
<path fill="#E86969" opacity="1.000000" stroke="none" 
	d="
M98.590195,124.128128 
	C98.420906,123.580528 98.516457,122.996857 98.843857,122.209831 
	C99.002151,122.701668 98.928589,123.396858 98.590195,124.128128 
z"/>
<path fill="#F6F3F3" opacity="1.000000" stroke="none" 
	d="
M87.905487,70.310028 
	C86.378624,72.293854 84.863937,73.931282 82.693649,75.744614 
	C77.003929,78.172249 72.107925,81.061386 66.247734,79.960480 
	C63.230667,79.393677 60.260525,78.577087 57.269180,77.873375 
	C49.129578,73.387184 44.566154,66.014503 41.016026,57.044136 
	C38.603905,47.323067 36.290699,38.331741 33.799908,29.389881 
	C33.453911,28.147770 32.232033,27.149639 31.336365,25.670971 
	C31.133884,24.561720 31.010660,23.820063 31.011868,22.701187 
	C31.240456,20.774809 31.344612,19.225651 31.448769,17.676495 
	C53.491600,17.586071 75.534424,17.494041 97.577271,17.407215 
	C100.394096,17.396120 103.211014,17.412144 106.347107,17.889412 
	C106.858521,19.626320 107.050713,20.889421 107.242912,22.152521 
	C107.144302,22.555111 107.045692,22.957701 106.563103,23.682394 
	C106.292824,24.700539 106.406525,25.396584 106.520233,26.092628 
	C106.507683,26.801472 106.495140,27.510317 106.034828,28.542255 
	C105.379166,29.573915 105.171280,30.282480 104.931488,31.401455 
	C104.746040,33.174305 104.592506,34.536743 104.159454,35.952576 
	C103.543549,36.665878 103.207176,37.325787 102.644165,38.169678 
	C102.294884,38.912903 102.172234,39.472145 102.002167,40.324863 
	C101.885384,41.008610 101.816017,41.398880 101.461388,41.915016 
	C101.135689,43.031666 101.095253,44.022449 101.054810,45.013229 
	C100.850525,45.864555 100.646240,46.715881 99.832558,47.832283 
	C98.461540,50.726425 97.699936,53.355503 96.938324,55.984577 
	C96.720497,56.526707 96.502678,57.068836 96.036057,57.769249 
	C93.164055,61.939560 90.540848,65.951599 87.905487,70.310028 
M84.979286,41.523697 
	C84.873779,41.330307 84.768280,41.136917 84.517487,40.244614 
	C82.352516,39.810303 80.187546,39.375996 78.231232,38.904968 
	C78.231232,38.904968 78.225044,38.693192 77.938210,38.144291 
	C77.193558,37.966770 76.448898,37.789253 75.409569,37.092876 
	C75.194588,36.758709 74.979607,36.424541 74.882767,35.420517 
	C73.979790,34.206146 73.076813,32.991776 72.158974,31.362957 
	C72.158974,31.362957 71.872536,31.063053 71.644508,30.512251 
	C68.950935,28.071920 69.607460,30.876801 68.763428,32.495358 
	C68.462326,33.243950 68.161224,33.992542 67.226189,35.047623 
	C65.245773,37.946636 62.587307,39.407658 58.630829,38.585560 
	C58.041798,39.014534 57.452766,39.443512 57.000835,39.996849 
	C57.000835,39.996849 56.868492,39.866756 56.265625,39.967976 
	C56.521862,40.963650 56.778095,41.959320 56.999611,42.999180 
	C56.999611,42.999180 57.045361,42.966774 57.099682,43.599453 
	C57.751431,44.040028 58.403175,44.480598 59.011898,44.998947 
	C59.011898,44.998947 59.080544,44.942440 59.160419,45.556755 
	C59.791519,46.008263 60.422619,46.459774 61.319534,47.392616 
	C61.442097,47.528889 61.564663,47.665165 61.352036,48.616734 
	C61.443554,49.474014 61.535069,50.331299 61.358727,51.771381 
	C61.327873,52.195557 61.297020,52.619728 60.842922,53.276817 
	C60.890377,53.851974 60.937828,54.427132 60.872482,55.505798 
	C60.901024,55.675411 60.929565,55.845020 60.822983,56.680962 
	C61.595280,59.102585 62.772614,59.383884 64.922401,57.224873 
	C65.241974,57.046375 65.561539,56.867878 66.494019,56.799515 
	C67.085854,56.271820 67.677681,55.744125 69.026466,55.074871 
	C70.296494,55.090584 71.566521,55.106297 73.082649,55.749073 
	C77.702682,58.895859 77.702682,58.895859 80.366898,56.248917 
	C80.239357,55.165062 80.111809,54.081203 80.422806,52.719715 
	C80.069420,52.016552 79.716034,51.313385 79.393822,49.955528 
	C80.034500,48.376122 80.675179,46.796715 81.841782,45.130192 
	C82.395889,44.364948 82.950005,43.599701 83.891617,43.009018 
	C84.154419,42.710323 84.417213,42.411633 84.979286,41.523697 
z"/>
<path fill="#E01818" opacity="1.000000" stroke="none" 
	d="
M30.887436,23.078407 
	C31.010660,23.820063 31.133884,24.561720 31.078213,25.694183 
	C30.649904,26.308756 30.400492,26.532520 30.151079,26.756287 
	C29.586479,27.164869 29.021879,27.573450 27.757896,27.835274 
	C24.024216,27.518198 20.989916,27.347879 17.955618,27.177563 
	C17.678476,26.627159 17.401335,26.076757 16.995209,25.242004 
	C20.162045,23.777441 24.405270,27.198837 27.042225,22.458530 
	C27.009771,21.599771 26.986036,21.143261 26.977543,20.344307 
	C27.287500,19.528975 27.582214,19.056084 27.897984,18.292095 
	C28.124611,18.001947 28.330181,18.002897 28.861813,18.394073 
	C29.754393,20.215670 30.320913,21.647039 30.887436,23.078407 
z"/>
<path fill="#EFACAC" opacity="1.000000" stroke="none" 
	d="
M121.594620,27.907448 
	C121.910255,29.271149 121.838158,30.491304 121.134941,31.623528 
	C119.358353,30.633511 118.337517,29.254169 117.044632,28.916513 
	C112.719734,27.787008 110.445480,30.407423 108.638611,34.004601 
	C108.165855,33.976601 107.977631,33.952873 107.789398,33.929146 
	C108.430481,27.220552 108.855911,25.808992 121.594620,27.907448 
z"/>
<path fill="#EA7979" opacity="1.000000" stroke="none" 
	d="
M107.502625,33.699337 
	C107.977631,33.952873 108.165855,33.976601 108.690117,34.352196 
	C108.695900,35.812298 108.365639,36.920525 107.664261,38.022274 
	C106.551773,37.990631 105.810394,37.965469 105.067955,37.955551 
	C105.066887,37.970795 105.072914,37.944271 105.158638,37.686798 
	C104.975899,36.919277 104.707436,36.409229 104.438965,35.899181 
	C104.592506,34.536743 104.746040,33.174305 105.155411,31.368071 
	C105.689072,30.801031 105.979477,30.727474 106.282463,30.703604 
	C106.593597,31.625578 106.904724,32.547554 107.502625,33.699337 
z"/>
<path fill="#EA7979" opacity="1.000000" stroke="none" 
	d="
M31.011868,22.701187 
	C30.320913,21.647039 29.754393,20.215670 29.170162,18.396399 
	C29.725090,17.790337 30.297724,17.572174 31.159563,17.515255 
	C31.344612,19.225651 31.240456,20.774809 31.011868,22.701187 
z"/>
<path fill="#EA7979" opacity="1.000000" stroke="none" 
	d="
M107.578842,22.037512 
	C107.050713,20.889421 106.858521,19.626320 106.630249,17.984859 
	C109.343925,18.202854 109.469116,18.612001 107.578842,22.037512 
z"/>
<path fill="#F1C7C7" opacity="1.000000" stroke="none" 
	d="
M106.387192,30.382328 
	C105.979477,30.727474 105.689072,30.801031 105.187317,30.957661 
	C105.171280,30.282480 105.379166,29.573915 105.846756,28.847290 
	C106.234940,29.239840 106.363434,29.650446 106.387192,30.382328 
z"/>
<path fill="#F1C7C7" opacity="1.000000" stroke="none" 
	d="
M106.694550,25.753880 
	C106.406525,25.396584 106.292824,24.700539 106.439423,23.967630 
	C106.756111,24.425554 106.812492,24.920343 106.694550,25.753880 
z"/>
<path fill="#F6F2F2" opacity="1.000000" stroke="none" 
	d="
M108.035385,38.028755 
	C108.365639,36.920525 108.695900,35.812298 108.974655,34.356476 
	C110.445480,30.407423 112.719734,27.787008 117.044632,28.916513 
	C118.337517,29.254169 119.358353,30.633511 120.799545,31.779434 
	C120.969284,33.044804 120.843300,34.066334 120.353180,35.588890 
	C119.697037,38.065289 119.405022,40.040668 119.113007,42.016048 
	C118.876244,42.851765 118.639473,43.687477 117.818390,44.791077 
	C116.823685,46.040371 116.413284,47.021786 116.002884,48.003197 
	C116.002884,48.003197 116.000000,48.000000 115.666840,48.031898 
	C114.194092,49.333233 113.054512,50.602673 111.914932,51.872112 
	C111.914932,51.872112 111.956520,51.961372 111.526581,51.918850 
	C108.875633,52.341045 106.654625,52.805767 104.312439,53.295841 
	C105.570793,48.135578 106.803093,43.082165 108.035385,38.028755 
z"/>
<path fill="#EFACAC" opacity="1.000000" stroke="none" 
	d="
M107.664268,38.022274 
	C106.803093,43.082165 105.570793,48.135578 104.312439,53.295841 
	C106.654625,52.805767 108.875633,52.341045 111.486145,51.890762 
	C109.264931,53.266933 106.689484,54.714870 103.975876,55.825161 
	C103.761063,55.913055 101.862312,53.562065 102.001289,52.510365 
	C102.358315,49.808491 103.511566,47.220097 104.113297,44.534092 
	C104.212502,44.091282 103.131386,43.384060 102.248520,42.597420 
	C101.849739,42.193584 101.798187,41.991367 101.746643,41.789146 
	C101.816017,41.398880 101.885384,41.008610 102.352615,40.302105 
	C103.523331,39.304016 104.296173,38.622162 105.069023,37.940308 
	C105.810394,37.965469 106.551773,37.990631 107.664268,38.022274 
z"/>
<path fill="#F1C7C7" opacity="1.000000" stroke="none" 
	d="
M97.284637,55.861908 
	C97.699936,53.355503 98.461540,50.726425 99.568695,48.028809 
	C99.153137,50.553261 98.392044,53.146252 97.284637,55.861908 
z"/>
<path fill="#EFACAC" opacity="1.000000" stroke="none" 
	d="
M119.448120,41.853851 
	C119.405022,40.040668 119.697037,38.065289 120.296600,35.971973 
	C120.330505,37.799908 120.056870,39.745785 119.448120,41.853851 
z"/>
<path fill="#EFACAC" opacity="1.000000" stroke="none" 
	d="
M112.267067,51.886356 
	C113.054512,50.602673 114.194092,49.333233 115.668510,48.033234 
	C114.875298,49.301983 113.747253,50.601292 112.267067,51.886356 
z"/>
<path fill="#F1C7C7" opacity="1.000000" stroke="none" 
	d="
M101.461380,41.915016 
	C101.798187,41.991367 101.849739,42.193584 101.953735,42.704418 
	C101.888191,43.616074 101.770218,44.219116 101.353531,44.917694 
	C101.095253,44.022449 101.135689,43.031666 101.461380,41.915016 
z"/>
<path fill="#EFACAC" opacity="1.000000" stroke="none" 
	d="
M116.323212,47.896564 
	C116.413284,47.021786 116.823685,46.040371 117.567642,45.000275 
	C117.481972,45.891041 117.062752,46.840485 116.323212,47.896564 
z"/>
<path fill="#F1C7C7" opacity="1.000000" stroke="none" 
	d="
M57.244289,78.168060 
	C60.260525,78.577087 63.230667,79.393677 66.247734,79.960480 
	C72.107925,81.061386 77.003929,78.172249 82.400848,75.905205 
	C82.763626,75.889893 82.899384,76.337997 82.929008,76.570190 
	C75.257149,83.028572 66.870728,83.578812 57.579407,79.730392 
	C57.202908,79.249084 57.211151,78.855919 57.244289,78.168060 
z"/>
<path fill="#E54646" opacity="1.000000" stroke="none" 
	d="
M74.524353,93.096565 
	C73.979324,92.744324 73.601120,92.105179 73.321884,91.178711 
	C73.844299,91.530815 74.267738,92.170242 74.524353,93.096565 
z"/>
<path fill="#F4E0E0" opacity="1.000000" stroke="none" 
	d="
M17.729481,27.509005 
	C20.989916,27.347879 24.024216,27.518198 27.400608,27.893135 
	C29.706520,35.635738 31.707624,43.164375 33.601250,50.719952 
	C33.960274,52.152466 33.893051,53.691803 34.022503,55.181854 
	C32.579475,54.809738 31.136452,54.437618 29.350956,54.051880 
	C19.812670,48.668591 15.350550,38.508114 17.729481,27.509005 
z"/>
<path fill="#F1C7C7" opacity="1.000000" stroke="none" 
	d="
M30.465286,27.003330 
	C30.400492,26.532520 30.649904,26.308756 31.157471,26.061777 
	C32.232033,27.149639 33.453911,28.147770 33.799908,29.389881 
	C36.290699,38.331741 38.603905,47.323067 40.963295,56.689079 
	C40.235424,56.770039 39.517696,56.460621 38.516842,56.054291 
	C36.634445,50.179993 34.980122,44.417088 33.455570,38.620052 
	C32.465645,34.855904 31.664965,31.041990 30.465286,27.003330 
z"/>
<path fill="#E22C2C" opacity="1.000000" stroke="none" 
	d="
M61.687229,47.801437 
	C61.564663,47.665165 61.442097,47.528889 61.168724,46.832748 
	C60.372128,45.829403 59.726334,45.385921 59.080544,44.942440 
	C59.080544,44.942440 59.011898,44.998947 58.997921,44.645332 
	C58.337749,43.850071 57.691555,43.408421 57.045361,42.966774 
	C57.045361,42.966774 56.999611,42.999180 57.029099,42.589855 
	C56.995224,41.409271 56.931858,40.638016 56.868492,39.866756 
	C56.868492,39.866756 57.000835,39.996849 57.250351,39.966988 
	C58.003468,39.598557 58.507069,39.259987 59.010670,38.921421 
	C62.587307,39.407658 65.245773,37.946636 67.611160,35.254967 
	C68.418755,36.028297 68.841385,36.594284 69.116341,37.481525 
	C66.876816,39.708618 64.784966,41.614456 63.134197,43.118435 
	C64.412315,49.689362 67.656746,53.333179 74.505760,50.737408 
	C75.238190,48.952213 76.248016,47.234135 76.596344,45.391045 
	C76.845100,44.074810 76.205803,42.590740 75.970032,40.823013 
	C75.979607,39.986332 75.981918,39.508198 76.364662,39.014526 
	C77.238419,38.897053 77.731728,38.795124 78.225044,38.693192 
	C78.225044,38.693192 78.231232,38.904968 78.188522,39.278366 
	C79.202499,41.506950 80.259178,43.362129 81.315857,45.217308 
	C80.675179,46.796715 80.034500,48.376122 79.259903,50.612606 
	C79.412086,51.845570 79.698181,52.421455 79.984268,52.997345 
	C80.111809,54.081203 80.239357,55.165062 79.795197,56.569118 
	C77.094521,56.300217 74.965530,55.711113 72.836548,55.122009 
	C71.566521,55.106297 70.296494,55.090584 68.327271,55.083893 
	C67.045753,55.625072 66.463432,56.157223 65.881111,56.689377 
	C65.561539,56.867878 65.241974,57.046375 64.308929,57.153454 
	C62.783001,56.726234 61.870556,56.370434 60.958107,56.014633 
	C60.929565,55.845020 60.901024,55.675411 61.152412,55.131775 
	C61.376953,54.186470 61.321564,53.615189 61.266167,53.043903 
	C61.297020,52.619728 61.327873,52.195557 61.758415,51.378403 
	C62.001141,49.924095 61.844185,48.862766 61.687229,47.801437 
z"/>
<path fill="#E01515" opacity="1.000000" stroke="none" 
	d="
M75.984222,39.030067 
	C75.981918,39.508198 75.979607,39.986332 75.604568,40.789135 
	C73.242569,39.795959 71.253296,38.478115 69.264023,37.160271 
	C68.841385,36.594284 68.418755,36.028297 67.928116,35.101723 
	C68.161224,33.992542 68.462326,33.243950 69.269897,32.189201 
	C70.475098,31.609716 71.173813,31.336384 71.872536,31.063053 
	C71.872536,31.063053 72.158974,31.362957 72.083054,31.916161 
	C72.926300,33.676369 73.845467,34.883373 74.764626,36.090378 
	C74.979607,36.424541 75.194588,36.758709 75.538788,37.596695 
	C75.758247,38.415520 75.863655,38.725372 75.984222,39.030067 
z"/>
<path fill="#E01515" opacity="1.000000" stroke="none" 
	d="
M81.578819,45.173752 
	C80.259178,43.362129 79.202499,41.506950 78.084198,39.296730 
	C80.187546,39.375996 82.352516,39.810303 84.396545,40.707199 
	C84.103996,41.424267 84.006020,41.704498 83.830109,42.197830 
	C83.678543,42.385178 83.504112,42.834457 83.504112,42.834457 
	C82.950005,43.599701 82.395889,44.364948 81.578819,45.173752 
z"/>
<path fill="#E86969" opacity="1.000000" stroke="none" 
	d="
M72.959595,55.435539 
	C74.965530,55.711113 77.094521,56.300217 79.595543,56.935341 
	C77.702682,58.895859 77.702682,58.895859 72.959595,55.435539 
z"/>
<path fill="#E65555" opacity="1.000000" stroke="none" 
	d="
M74.823700,35.755447 
	C73.845467,34.883373 72.926300,33.676369 72.090485,32.123383 
	C73.076813,32.991776 73.979790,34.206146 74.823700,35.755447 
z"/>
<path fill="#E65555" opacity="1.000000" stroke="none" 
	d="
M71.758522,30.787651 
	C71.173813,31.336384 70.475098,31.609716 69.501282,31.969933 
	C69.607460,30.876801 68.950935,28.071920 71.758522,30.787651 
z"/>
<path fill="#E86969" opacity="1.000000" stroke="none" 
	d="
M60.890545,56.347797 
	C61.870556,56.370434 62.783001,56.726234 64.041245,57.218735 
	C62.772614,59.383884 61.595280,59.102585 60.890545,56.347797 
z"/>
<path fill="#E86969" opacity="1.000000" stroke="none" 
	d="
M61.519630,48.209084 
	C61.844185,48.862766 62.001141,49.924095 61.892342,51.087002 
	C61.535069,50.331299 61.443554,49.474014 61.519630,48.209084 
z"/>
<path fill="#E86969" opacity="1.000000" stroke="none" 
	d="
M56.567055,39.917366 
	C56.931858,40.638016 56.995224,41.409271 57.046463,42.567764 
	C56.778095,41.959320 56.521862,40.963650 56.567055,39.917366 
z"/>
<path fill="#F1C7C7" opacity="1.000000" stroke="none" 
	d="
M105.067955,37.955551 
	C104.296173,38.622162 103.523331,39.304016 102.400040,40.008629 
	C102.172234,39.472145 102.294884,38.912903 103.012421,38.170181 
	C104.095840,37.972557 104.584373,37.958412 105.072914,37.944271 
	C105.072914,37.944271 105.066887,37.970795 105.067955,37.955551 
z"/>
<path fill="#EFACAC" opacity="1.000000" stroke="none" 
	d="
M105.158638,37.686798 
	C104.584373,37.958412 104.095840,37.972557 103.239052,37.986198 
	C103.207176,37.325787 103.543549,36.665878 104.159447,35.952576 
	C104.707436,36.409229 104.975899,36.919277 105.158638,37.686798 
z"/>
<path fill="#E86969" opacity="1.000000" stroke="none" 
	d="
M80.203537,52.858528 
	C79.698181,52.421455 79.412086,51.845570 79.244316,50.939953 
	C79.716034,51.313385 80.069420,52.016552 80.203537,52.858528 
z"/>
<path fill="#E86969" opacity="1.000000" stroke="none" 
	d="
M76.364662,39.014526 
	C75.863655,38.725372 75.758247,38.415520 75.686127,37.856125 
	C76.448898,37.789253 77.193558,37.966770 78.081627,38.418743 
	C77.731728,38.795124 77.238419,38.897053 76.364662,39.014526 
z"/>
<path fill="#E86969" opacity="1.000000" stroke="none" 
	d="
M58.820747,38.753490 
	C58.507069,39.259987 58.003468,39.598557 57.181801,39.904808 
	C57.452766,39.443512 58.041798,39.014534 58.820747,38.753490 
z"/>
<path fill="#E86969" opacity="1.000000" stroke="none" 
	d="
M57.072521,43.283112 
	C57.691555,43.408421 58.337749,43.850071 59.019432,44.606445 
	C58.403175,44.480598 57.751431,44.040028 57.072521,43.283112 
z"/>
<path fill="#E86969" opacity="1.000000" stroke="none" 
	d="
M59.120483,45.249596 
	C59.726334,45.385921 60.372128,45.829403 61.035820,46.592083 
	C60.422619,46.459774 59.791519,46.008263 59.120483,45.249596 
z"/>
<path fill="#E86969" opacity="1.000000" stroke="none" 
	d="
M61.054546,53.160362 
	C61.321564,53.615189 61.376953,54.186470 61.208817,54.880020 
	C60.937828,54.427132 60.890377,53.851974 61.054546,53.160362 
z"/>
<path fill="#E86969" opacity="1.000000" stroke="none" 
	d="
M66.187561,56.744446 
	C66.463432,56.157223 67.045753,55.625072 67.948792,55.154678 
	C67.677681,55.744125 67.085854,56.271820 66.187561,56.744446 
z"/>
<path fill="#E01515" opacity="1.000000" stroke="none" 
	d="
M84.680008,42.112938 
	C84.417213,42.411633 84.154419,42.710323 83.697861,42.921738 
	C83.504112,42.834457 83.678543,42.385178 83.997398,42.273281 
	C84.316254,42.161385 84.680016,42.112942 84.680008,42.112938 
z"/>
<path fill="#E65555" opacity="1.000000" stroke="none" 
	d="
M84.829651,41.818321 
	C84.680016,42.112942 84.316254,42.161385 84.148964,42.085930 
	C84.006020,41.704498 84.103996,41.424267 84.469193,41.056656 
	C84.768280,41.136917 84.873779,41.330307 84.829651,41.818321 
z"/>
<path fill="#F2CACA" opacity="1.000000" stroke="none" 
	d="
M69.116341,37.481525 
	C71.253296,38.478115 73.242569,39.795959 75.597305,41.147686 
	C76.205803,42.590740 76.845100,44.074810 76.596344,45.391045 
	C76.248016,47.234135 75.238190,48.952213 74.505760,50.737408 
	C67.656746,53.333179 64.412315,49.689362 63.134197,43.118435 
	C64.784966,41.614456 66.876816,39.708618 69.116341,37.481525 
z"/>
</svg>