<svg version="1.1" id="Layer_1" xmlns="http://www.w3.org/2000/svg" xmlns:xlink="http://www.w3.org/1999/xlink" x="0px" y="0px"
	 width="100%" viewBox="0 0 140 140" enable-background="new 0 0 140 140" xml:space="preserve">
<path fill="#F6F3F3" opacity="1.000000" stroke="none" 
	d="
M85.000000,141.000000 
	C56.691532,141.000000 28.883066,141.000000 1.037300,141.000000 
	C1.037300,94.399918 1.037300,47.799797 1.037300,1.099839 
	C47.558224,1.099839 94.116737,1.099839 140.837616,1.099839 
	C140.837616,47.666210 140.837616,94.333054 140.837616,141.000000 
	C122.466858,141.000000 103.983429,141.000000 85.000000,141.000000 
M110.680374,95.643066 
	C110.930801,95.533890 111.181229,95.424706 112.126396,95.321045 
	C113.087280,93.830116 114.048164,92.339188 115.638519,90.911446 
	C116.463837,89.994110 117.289154,89.076775 118.755791,87.884506 
	C121.702446,82.717026 125.984825,80.405632 131.960342,81.699646 
	C132.112061,81.732491 132.343216,81.730835 132.438477,81.640747 
	C133.390228,80.740692 134.321198,79.818657 135.258041,78.902832 
	C134.137527,78.367432 133.017029,77.832031 131.060196,77.149269 
	C129.359665,77.169884 127.659142,77.190498 125.542442,76.520416 
	C125.537315,74.253555 125.620613,71.982330 125.509171,69.720711 
	C125.255478,64.571983 126.610580,59.036304 122.147011,54.412117 
	C122.147011,54.412117 121.893051,54.049721 121.908112,53.380241 
	C121.266617,52.599960 120.625122,51.819679 119.513428,50.546059 
	C115.764389,47.626827 112.015350,44.707596 107.827400,41.252342 
	C105.839569,40.656887 103.851746,40.061436 101.294693,39.240871 
	C100.889389,39.232410 100.484085,39.223949 99.207306,38.892551 
	C95.321304,38.892551 91.435295,38.892551 87.143120,38.892551 
	C87.019707,37.760754 87.067513,36.259373 86.662468,34.892147 
	C85.842537,32.124485 84.777107,29.429552 83.812904,26.704630 
	C79.711975,28.828384 80.611992,32.517567 80.844604,36.818230 
	C80.516312,41.342381 79.293877,45.485435 75.163902,48.756031 
	C74.394600,49.411797 73.625298,50.067562 72.139267,50.955936 
	C71.150879,50.892506 70.162498,50.829075 69.058472,50.381084 
	C69.058472,50.381084 68.789856,50.082592 68.827095,49.419178 
	C67.510994,48.385258 66.194893,47.351337 64.659515,45.974304 
	C64.659515,45.974304 64.298561,45.785816 64.046379,45.070290 
	C63.252960,43.651188 62.015129,42.311790 61.743828,40.799049 
	C60.629250,34.584290 59.881027,28.304802 58.847645,22.074070 
	C58.374825,19.223249 57.553562,16.430220 56.758430,13.050327 
	C51.338367,15.624875 52.257236,19.295755 53.015144,23.878733 
	C52.973400,27.589270 52.931656,31.299809 52.536274,35.724602 
	C52.506744,38.476070 51.015705,39.042500 48.437180,39.218357 
	C43.950176,39.524372 39.505611,40.452728 34.307594,40.977024 
	C22.258633,45.591549 15.837045,56.232174 17.098993,70.801041 
	C17.523117,75.697433 16.477509,77.436584 11.501281,77.004456 
	C9.999059,76.874001 8.353952,78.388908 6.774292,79.150131 
	C8.316659,79.981628 9.870731,81.534546 11.399208,81.509735 
	C16.039215,81.434456 20.313337,81.589188 22.796356,87.105316 
	C24.252617,89.062592 25.708879,91.019867 27.217672,93.570999 
	C27.812527,94.042862 28.407381,94.514725 29.353302,95.564079 
	C36.503998,100.739807 43.654697,105.915535 51.069843,111.616676 
	C51.728191,111.948914 52.386539,112.281151 53.591335,113.066536 
	C58.881748,116.461761 64.172157,119.856979 69.806580,123.771965 
	C70.979881,123.565865 72.153183,123.359772 73.954765,123.079552 
	C74.963074,122.336510 75.971375,121.593460 77.586739,120.809784 
	C78.130226,120.240196 78.673714,119.670601 79.646149,119.032005 
	C79.646149,119.032005 79.967773,118.739891 80.569176,118.751259 
	C81.137917,118.210632 81.706650,117.670013 82.684807,117.063934 
	C82.684807,117.063934 82.969551,116.762558 83.563858,116.736160 
	C84.108231,116.187988 84.652611,115.639816 85.862411,114.982315 
	C90.230637,112.235413 94.598862,109.488510 99.560692,106.728226 
	C100.088463,106.174133 100.616241,105.620041 101.800453,104.919579 
	C103.523766,103.183678 105.247078,101.447784 107.574829,99.501236 
	C108.478325,98.070129 109.381821,96.639023 110.180077,95.047737 
	C110.180077,95.047737 110.021591,95.155495 110.680374,95.643066 
z"/>
<path fill="#E01B1B" opacity="1.000000" stroke="none" 
	d="
M64.298561,45.785816 
	C64.298561,45.785816 64.659515,45.974304 64.814224,46.460541 
	C66.242577,47.992050 67.516220,49.037323 68.789856,50.082592 
	C68.789856,50.082592 69.058472,50.381084 69.034920,50.876755 
	C69.008446,51.581760 69.005516,51.791103 68.589844,52.033783 
	C67.631554,52.149147 67.086021,52.231167 66.341904,52.289879 
	C66.143333,52.266575 65.761208,52.148720 65.682907,51.793507 
	C64.611427,51.092381 63.618252,50.746471 62.625080,50.400562 
	C62.456154,51.821991 61.972321,53.288853 62.169750,54.657429 
	C63.389584,63.113174 64.573265,71.582794 66.166878,79.972214 
	C66.937057,84.026749 68.573448,87.916748 70.322815,91.926102 
	C71.502151,92.023468 72.176315,92.075989 72.809052,92.310333 
	C72.767624,92.492157 72.481094,92.730942 72.177803,92.909668 
	C70.206673,94.406288 68.538834,95.724174 66.628998,97.039337 
	C66.387001,97.036613 65.903206,97.021828 65.860901,96.662254 
	C65.683022,95.594185 65.547455,94.885696 65.549034,93.888283 
	C65.444672,93.068352 65.203156,92.537346 64.926086,91.601028 
	C64.780319,89.846489 64.670105,88.497261 64.672569,86.845779 
	C64.495872,86.033669 64.206490,85.523811 63.872658,84.628159 
	C63.676685,83.222397 63.525162,82.202423 63.520271,80.897537 
	C63.434578,80.076729 63.202244,79.540848 62.934288,78.586349 
	C62.775551,76.496933 62.652443,74.826141 62.660458,72.855942 
	C62.487770,72.044495 62.183956,71.532440 61.836174,70.661575 
	C61.653572,69.596245 61.514942,68.889717 61.520035,67.895149 
	C61.417149,67.075600 61.170540,66.544098 60.894936,65.606567 
	C60.757755,63.851337 60.649567,62.502132 60.666801,60.851608 
	C60.484459,60.040958 60.176689,59.531620 59.830460,58.662819 
	C59.660675,57.595303 59.529358,56.887253 59.541679,55.892700 
	C59.450195,55.071907 59.215073,54.537609 58.944878,53.575031 
	C58.744965,51.166527 58.580116,49.186310 58.463310,46.908310 
	C57.506538,46.537968 56.501736,46.465401 55.373230,46.831860 
	C55.034172,50.488144 54.818813,53.705399 54.312813,57.000206 
	C54.031105,58.057335 54.040031,59.036915 54.062050,60.425880 
	C53.955757,61.917835 53.836376,63.000404 53.511040,64.256363 
	C53.203548,64.953270 53.102005,65.476791 52.786018,66.265869 
	C51.907497,66.682831 51.243431,66.834221 50.533314,66.618332 
	C50.557564,65.516182 50.627861,64.781311 51.007179,63.813957 
	C51.219776,61.389042 51.123348,59.196613 50.993240,56.557358 
	C51.105019,53.444462 51.250481,50.778393 51.700218,48.000763 
	C51.704010,46.571365 51.403526,45.253536 51.058357,43.951454 
	C51.013680,43.967197 51.070286,43.891220 51.036789,43.578709 
	C50.002220,43.177307 49.001148,43.088413 47.600189,43.039104 
	C46.131035,43.038521 45.061756,42.998352 43.733749,42.704353 
	C40.644516,43.276566 37.814018,44.102608 34.750957,45.058640 
	C34.176506,45.280113 33.834618,45.371601 33.185802,45.333908 
	C32.716087,44.604897 32.222778,43.740250 32.451832,43.454372 
	C33.169231,42.558998 34.159008,41.881866 35.043255,41.120178 
	C39.505611,40.452728 43.950176,39.524372 48.437180,39.218357 
	C51.015705,39.042500 52.506744,38.476070 53.078491,35.358208 
	C54.108662,35.003365 54.596615,35.014915 55.246918,35.351212 
	C55.590584,37.668598 55.771900,39.661243 56.002750,42.198307 
	C57.431442,41.301029 58.562119,40.590912 58.728706,40.486286 
	C60.728504,42.389027 62.513531,44.087421 64.298561,45.785816 
z"/>
<path fill="#E43D3D" opacity="1.000000" stroke="none" 
	d="
M106.970398,99.711884 
	C105.247078,101.447784 103.523766,103.183678 101.156654,104.989929 
	C99.997604,105.620735 99.482353,106.181175 98.967102,106.741623 
	C94.598862,109.488510 90.230637,112.235413 85.208466,115.026688 
	C84.026199,115.634895 83.497871,116.198723 82.969551,116.762558 
	C82.969551,116.762558 82.684807,117.063934 82.155090,117.076050 
	C81.072838,117.638748 80.520302,118.189316 79.967773,118.739883 
	C79.967773,118.739891 79.646149,119.032005 79.102821,119.058418 
	C78.032890,119.673363 77.506287,120.261894 76.979675,120.850418 
	C75.971375,121.593460 74.963074,122.336510 73.158463,123.064651 
	C71.395622,123.117233 70.429100,123.184715 69.462570,123.252197 
	C64.172157,119.856979 58.881748,116.461761 53.239258,112.543793 
	C52.193249,111.711121 51.499321,111.401199 50.805393,111.091278 
	C43.654697,105.915535 36.503998,100.739807 29.150463,94.967766 
	C28.353464,93.906685 27.759302,93.441917 27.165138,92.977142 
	C25.708879,91.019867 24.252617,89.062592 23.004532,86.413315 
	C23.990925,85.362328 24.769142,85.003342 25.832535,84.809952 
	C30.411314,89.686638 34.704922,94.397728 39.058224,99.430862 
	C39.815472,100.141815 40.513023,100.530739 41.540501,100.977768 
	C50.246048,106.410950 58.621670,111.786041 67.056946,117.473022 
	C67.791183,118.172348 68.465759,118.559761 69.383255,118.994522 
	C69.626160,119.041870 69.993576,119.373535 70.072990,119.667160 
	C71.102318,119.691437 72.052231,119.422081 73.239601,118.913727 
	C84.072655,111.765205 94.668243,104.855667 105.667084,98.410164 
	C106.370361,99.153427 106.670380,99.432655 106.970398,99.711884 
z"/>
<path fill="#E65252" opacity="1.000000" stroke="none" 
	d="
M25.547359,84.644363 
	C24.769142,85.003342 23.990925,85.362328 22.958771,86.077614 
	C20.313337,81.589188 16.039215,81.434456 11.399208,81.509735 
	C9.870731,81.534546 8.316659,79.981628 6.774294,79.150131 
	C8.353952,78.388908 9.999059,76.874001 11.501281,77.004456 
	C16.477509,77.436584 17.523117,75.697433 17.098993,70.801041 
	C15.837045,56.232174 22.258633,45.591549 34.675423,41.048599 
	C34.159008,41.881866 33.169231,42.558998 32.451832,43.454372 
	C32.222778,43.740250 32.716087,44.604897 33.055107,45.643932 
	C23.627918,52.003307 20.676868,60.886425 21.817625,71.618645 
	C22.203356,75.247574 23.596146,77.253143 27.802691,77.013992 
	C32.553329,76.743896 37.346226,77.217079 42.006729,77.750351 
	C40.170822,78.434677 38.459179,78.827385 36.725311,79.021286 
	C27.815413,80.017647 18.780602,75.596786 11.023285,79.301765 
	C14.453845,80.193504 18.804962,81.324532 23.339001,82.611938 
	C24.007078,82.844498 24.492231,82.920692 25.130045,83.249252 
	C25.370922,83.882530 25.459141,84.263443 25.547359,84.644363 
M18.941271,63.334087 
	C18.941271,66.223900 18.941271,69.113708 18.941271,72.003517 
	C19.424179,71.968819 19.907089,71.934113 20.389997,71.899406 
	C19.942781,68.795677 19.495567,65.691948 18.941271,63.334087 
z"/>
<path fill="#E01919" opacity="1.000000" stroke="none" 
	d="
M121.893051,54.049721 
	C121.893051,54.049721 122.147011,54.412117 122.020561,55.037086 
	C124.033844,61.966587 125.085648,68.299316 123.162170,74.920952 
	C122.580582,76.923096 123.179291,78.703651 125.958611,77.211113 
	C127.659142,77.190498 129.359665,77.169884 131.520950,77.560692 
	C133.013748,81.863770 129.868225,80.002762 128.734207,80.045692 
	C121.378235,80.324265 120.915207,80.587433 118.114471,88.159439 
	C117.289154,89.076775 116.463837,89.994110 115.385803,90.516891 
	C115.066986,89.393402 115.000885,88.664467 115.034935,87.614120 
	C116.044434,85.602211 116.953781,83.911713 117.806610,81.816177 
	C111.073845,81.272446 104.397713,81.123283 97.720749,81.051788 
	C97.543076,81.049881 97.356369,81.890930 97.091309,82.618484 
	C96.350990,83.603989 95.693245,84.309883 94.778152,84.963554 
	C94.347084,84.889801 94.173363,84.868271 93.998978,84.466072 
	C93.973389,83.324577 93.948463,82.563766 93.919327,81.417572 
	C96.179268,79.769844 98.363228,77.632462 100.723267,77.416145 
	C106.780899,76.860901 112.916710,77.158478 119.201729,77.333763 
	C119.890961,76.364182 120.399727,75.175987 120.905319,73.521957 
	C120.567230,67.438934 120.232315,61.821758 119.940948,55.896755 
	C120.287712,55.073891 120.590927,54.558849 121.143692,54.073975 
	C121.559853,54.086002 121.726448,54.067860 121.893051,54.049721 
z"/>
<path fill="#DF0F0F" opacity="1.000000" stroke="none" 
	d="
M75.797699,48.659370 
	C79.293877,45.485435 80.516312,41.342381 81.127808,36.173561 
	C82.080643,33.740353 82.750282,31.951815 83.602524,29.675549 
	C85.311058,34.134575 80.953094,39.692505 87.913055,41.720230 
	C87.969742,42.697449 87.985588,43.353237 87.667038,44.218536 
	C86.937332,48.578186 86.542023,52.728325 86.031799,57.319164 
	C85.924675,60.177425 85.932457,62.594982 85.636154,65.004257 
	C84.926628,64.985626 84.521172,64.975288 83.903931,64.909370 
	C83.692146,64.853783 83.259911,64.924164 83.292816,64.484734 
	C83.226562,61.692017 83.127403,59.338734 83.168365,56.608002 
	C83.150887,54.691036 82.993279,53.151512 82.895027,52.191753 
	C80.086082,52.191753 78.051376,52.191753 76.018951,51.749016 
	C75.946716,50.423977 75.872208,49.541676 75.797699,48.659370 
z"/>
<path fill="#E65757" opacity="1.000000" stroke="none" 
	d="
M64.172470,45.428055 
	C62.513531,44.087421 60.728504,42.389027 58.728706,40.486286 
	C58.562119,40.590912 57.431442,41.301029 56.002750,42.198307 
	C55.771900,39.661243 55.590584,37.668598 55.304184,35.074528 
	C55.267342,34.322739 55.311283,34.153149 55.410732,34.027481 
	C55.507694,33.904949 55.661415,33.827332 55.790215,33.729996 
	C56.532120,34.721821 57.274025,35.713646 58.015930,36.705471 
	C58.350658,36.588604 58.685387,36.471741 59.020115,36.354874 
	C57.936722,29.670864 56.853329,22.986853 55.769939,16.302843 
	C55.377808,16.364511 54.985680,16.426178 54.593548,16.487846 
	C54.114937,18.645456 53.636322,20.803064 53.157711,22.960674 
	C52.257236,19.295755 51.338367,15.624875 56.758430,13.050327 
	C57.553562,16.430220 58.374825,19.223249 58.847645,22.074070 
	C59.881027,28.304802 60.629250,34.584290 61.743828,40.799049 
	C62.015129,42.311790 63.252960,43.651188 64.172470,45.428055 
z"/>
<path fill="#E75F5F" opacity="1.000000" stroke="none" 
	d="
M87.872208,41.398796 
	C80.953094,39.692505 85.311058,34.134575 83.602524,29.675549 
	C82.750282,31.951815 82.080643,33.740353 81.154800,35.771812 
	C80.611992,32.517567 79.711975,28.828384 83.812904,26.704630 
	C84.777107,29.429552 85.842537,32.124485 86.662468,34.892147 
	C87.067513,36.259373 87.019707,37.760754 87.143120,38.892551 
	C91.435295,38.892551 95.321304,38.892551 99.612885,39.389206 
	C99.671303,40.939587 99.324135,41.993313 98.590729,43.157627 
	C97.144485,43.193657 96.084473,43.119102 94.986191,42.731243 
	C92.589348,42.078224 90.230782,41.738510 87.872208,41.398796 
z"/>
<path fill="#E22727" opacity="1.000000" stroke="none" 
	d="
M98.976959,43.047039 
	C99.324135,41.993313 99.671303,40.939587 100.048630,39.550674 
	C100.484085,39.223949 100.889389,39.232410 101.702911,39.674965 
	C104.162857,40.668827 106.214592,41.228592 108.266319,41.788361 
	C112.015350,44.707596 115.764389,47.626827 119.728973,51.114090 
	C120.261055,52.469345 120.577599,53.256577 120.894135,54.043808 
	C120.590927,54.558849 120.287712,55.073891 119.615189,55.761772 
	C114.945114,47.776806 107.715004,44.226124 98.976959,43.047039 
z"/>
<path fill="#DF0F0F" opacity="1.000000" stroke="none" 
	d="
M53.086426,23.419704 
	C53.636322,20.803064 54.114937,18.645456 54.593548,16.487846 
	C54.985680,16.426178 55.377808,16.364511 55.769939,16.302843 
	C56.853329,22.986853 57.936722,29.670864 59.020115,36.354874 
	C58.685387,36.471741 58.350658,36.588604 58.015930,36.705471 
	C57.274025,35.713646 56.532120,34.721821 55.790215,33.729996 
	C55.661415,33.827332 55.507694,33.904949 55.410732,34.027481 
	C55.311283,34.153149 55.267342,34.322739 55.141838,34.749786 
	C54.596615,35.014915 54.108662,35.003365 53.255310,35.001083 
	C52.931656,31.299809 52.973400,27.589270 53.086426,23.419704 
z"/>
<path fill="#E65656" opacity="1.000000" stroke="none" 
	d="
M118.435127,88.021973 
	C120.915207,80.587433 121.378235,80.324265 128.734207,80.045692 
	C129.868225,80.002762 133.013748,81.863770 131.939117,77.634369 
	C133.017029,77.832031 134.137527,78.367432 135.258041,78.902832 
	C134.321198,79.818657 133.390228,80.740692 132.438477,81.640747 
	C132.343216,81.730835 132.112061,81.732491 131.960342,81.699646 
	C125.984825,80.405632 121.702446,82.717026 118.435127,88.021973 
z"/>
<path fill="#E65656" opacity="1.000000" stroke="none" 
	d="
M125.750526,76.865768 
	C123.179291,78.703651 122.580582,76.923096 123.162170,74.920952 
	C125.085648,68.299316 124.033844,61.966587 122.002380,55.257599 
	C126.610580,59.036304 125.255478,64.571983 125.509171,69.720711 
	C125.620613,71.982330 125.537315,74.253555 125.750526,76.865768 
z"/>
<path fill="#E43A3A" opacity="1.000000" stroke="none" 
	d="
M75.480804,48.707703 
	C75.872208,49.541676 75.946716,50.423977 75.953697,52.013245 
	C75.463730,53.246120 75.041298,53.772034 74.471558,54.635078 
	C71.428589,59.035091 70.303841,59.059219 67.731590,55.017208 
	C67.208893,54.195835 66.931152,53.218578 66.540482,52.313187 
	C67.086021,52.231167 67.631554,52.149147 68.911034,52.171997 
	C70.715309,51.759022 71.785652,51.241173 72.855988,50.723328 
	C73.625298,50.067562 74.394600,49.411797 75.480804,48.707703 
z"/>
<path fill="#EA7777" opacity="1.000000" stroke="none" 
	d="
M114.934784,87.935532 
	C115.000885,88.664467 115.066986,89.393402 115.071068,90.485298 
	C114.048164,92.339188 113.087280,93.830116 111.613037,95.128647 
	C110.740318,95.009338 110.380959,95.082420 110.021591,95.155502 
	C110.021591,95.155495 110.180077,95.047737 109.830826,95.011986 
	C109.215286,94.904732 108.948997,94.833237 108.786713,94.432281 
	C110.905396,92.047058 112.920090,89.991295 114.934784,87.935532 
z"/>
<path fill="#E65252" opacity="1.000000" stroke="none" 
	d="
M108.682716,94.761749 
	C108.948997,94.833237 109.215286,94.904732 109.883446,95.092072 
	C109.381821,96.639023 108.478325,98.070129 107.272614,99.606560 
	C106.670380,99.432655 106.370361,99.153427 105.806259,98.152756 
	C106.589027,96.541458 107.635872,95.651604 108.682716,94.761749 
z"/>
<path fill="#E75F5F" opacity="1.000000" stroke="none" 
	d="
M108.046860,41.520351 
	C106.214592,41.228592 104.162857,40.668827 101.987518,39.787521 
	C103.851746,40.061436 105.839569,40.656887 108.046860,41.520351 
z"/>
<path fill="#E65757" opacity="1.000000" stroke="none" 
	d="
M68.808472,49.750885 
	C67.516220,49.037323 66.242577,47.992050 64.923874,46.632099 
	C66.194893,47.351337 67.510994,48.385258 68.808472,49.750885 
z"/>
<path fill="#E65757" opacity="1.000000" stroke="none" 
	d="
M72.497627,50.839630 
	C71.785652,51.241173 70.715309,51.759022 69.323784,52.138657 
	C69.005516,51.791103 69.008446,51.581760 69.092743,51.069031 
	C70.162498,50.829075 71.150879,50.892506 72.497627,50.839630 
z"/>
<path fill="#E65252" opacity="1.000000" stroke="none" 
	d="
M69.634575,123.512085 
	C70.429100,123.184715 71.395622,123.117233 72.844315,123.101715 
	C72.153183,123.359772 70.979881,123.565865 69.634575,123.512085 
z"/>
<path fill="#E65656" opacity="1.000000" stroke="none" 
	d="
M121.143692,54.073975 
	C120.577599,53.256577 120.261055,52.469345 119.964066,51.360756 
	C120.625122,51.819679 121.266617,52.599960 121.900581,53.714981 
	C121.726448,54.067860 121.559853,54.086002 121.143692,54.073975 
z"/>
<path fill="#E65252" opacity="1.000000" stroke="none" 
	d="
M77.283211,120.830109 
	C77.506287,120.261894 78.032890,119.673363 78.888351,119.092926 
	C78.673714,119.670601 78.130226,120.240196 77.283211,120.830109 
z"/>
<path fill="#E65252" opacity="1.000000" stroke="none" 
	d="
M80.268471,118.745575 
	C80.520302,118.189316 81.072838,117.638748 81.950378,117.108780 
	C81.706650,117.670013 81.137917,118.210632 80.268471,118.745575 
z"/>
<path fill="#E65252" opacity="1.000000" stroke="none" 
	d="
M83.266708,116.749359 
	C83.497871,116.198723 84.026199,115.634895 84.875755,115.081360 
	C84.652611,115.639816 84.108231,116.187988 83.266708,116.749359 
z"/>
<path fill="#E65252" opacity="1.000000" stroke="none" 
	d="
M50.937618,111.353973 
	C51.499321,111.401199 52.193249,111.711121 52.966034,112.317215 
	C52.386539,112.281151 51.728191,111.948914 50.937618,111.353973 
z"/>
<path fill="#E65252" opacity="1.000000" stroke="none" 
	d="
M99.263901,106.734924 
	C99.482353,106.181175 99.997604,105.620735 100.828438,105.063126 
	C100.616241,105.620041 100.088463,106.174133 99.263901,106.734924 
z"/>
<path fill="#E65252" opacity="1.000000" stroke="none" 
	d="
M27.191406,93.274071 
	C27.759302,93.441917 28.353464,93.906685 28.974932,94.679016 
	C28.407381,94.514725 27.812527,94.042862 27.191406,93.274071 
z"/>
<path fill="#E65252" opacity="1.000000" stroke="none" 
	d="
M110.350983,95.399284 
	C110.380959,95.082420 110.740318,95.009338 111.265671,95.125885 
	C111.181229,95.424706 110.930801,95.533890 110.350983,95.399284 
z"/>
<path fill="#F5ECEC" opacity="1.000000" stroke="none" 
	d="
M108.786713,94.432281 
	C107.635872,95.651604 106.589027,96.541458 105.403008,97.688721 
	C94.668243,104.855667 84.072655,111.765205 72.861603,118.911667 
	C71.495293,119.223579 70.744431,119.298561 69.993576,119.373535 
	C69.993576,119.373535 69.626160,119.041870 69.271164,118.715759 
	C68.276550,117.980133 67.636917,117.570633 66.997292,117.161125 
	C58.621670,111.786041 50.246048,106.410950 41.414730,100.699692 
	C40.305531,99.945282 39.652027,99.527054 38.998528,99.108826 
	C34.704922,94.397728 30.411314,89.686638 25.832535,84.809952 
	C25.459141,84.263443 25.370922,83.882530 25.205881,82.948967 
	C25.178743,81.989113 25.228428,81.581902 25.729012,81.160927 
	C33.447632,81.162575 40.724487,81.380455 47.976738,81.053101 
	C49.822880,80.969772 51.590881,79.155388 53.682785,78.070175 
	C53.877232,76.925125 53.783684,75.846275 53.577126,74.791397 
	C53.464115,74.815361 53.233185,74.822983 53.403839,74.478241 
	C53.595539,73.113159 53.616585,72.092804 53.831627,70.759956 
	C54.063164,68.981537 54.100712,67.515610 54.309490,65.863144 
	C54.587879,65.183662 54.695034,64.690727 54.987846,63.910912 
	C55.110569,62.415649 55.047630,61.207275 54.974205,59.606941 
	C54.843628,58.450874 54.723541,57.686768 54.603455,56.922657 
	C54.818813,53.705399 55.034172,50.488144 55.709538,47.027687 
	C56.918121,46.925026 57.666695,47.065556 58.415272,47.206085 
	C58.580116,49.186310 58.744965,51.166527 58.743774,53.719028 
	C58.851173,54.920609 59.124603,55.549908 59.398037,56.179203 
	C59.529358,56.887253 59.660675,57.595303 59.619591,58.808655 
	C59.811913,59.926945 60.176643,60.539936 60.541374,61.152924 
	C60.649567,62.502132 60.757755,63.851337 60.695076,65.749855 
	C60.808243,66.927177 61.092278,67.555183 61.376312,68.183197 
	C61.514942,68.889717 61.653572,69.596245 61.626038,70.807281 
	C61.816357,71.926308 62.172844,72.540833 62.529331,73.155350 
	C62.652443,74.826141 62.775551,76.496933 62.734711,78.729156 
	C62.838387,79.921204 63.106014,80.551834 63.373638,81.182457 
	C63.525162,82.202423 63.676685,83.222397 63.662323,84.773987 
	C63.850922,85.919746 64.205406,86.533890 64.559891,87.148026 
	C64.670105,88.497261 64.780319,89.846489 64.725311,91.745575 
	C64.844009,92.922691 65.127945,93.549942 65.411888,94.177200 
	C65.547455,94.885696 65.683022,95.594185 65.647713,96.807068 
	C65.841629,97.919823 66.206421,98.528191 66.635643,99.522232 
	C66.844177,100.936707 66.988289,101.965515 66.850906,103.190025 
	C67.489265,105.206619 68.409126,107.027519 69.328979,108.848412 
	C70.554512,107.299423 72.056183,105.888214 72.919266,104.158386 
	C73.625175,102.743584 73.613907,100.955025 73.843468,99.321335 
	C74.652802,93.561676 75.428925,87.797348 76.232819,81.717102 
	C76.388138,81.001381 76.528267,80.603348 76.894409,80.108353 
	C77.091248,79.342064 77.062073,78.672737 77.041840,77.616837 
	C77.194695,76.211365 77.338608,75.192474 77.808517,74.018585 
	C78.756721,70.990501 79.227303,68.073471 80.043793,65.256699 
	C80.858147,62.447304 82.019196,59.738407 83.028244,56.985447 
	C83.127403,59.338734 83.226562,61.692017 83.029800,64.623840 
	C82.931129,65.811638 83.128380,66.420898 83.385666,67.441223 
	C83.653442,70.898216 83.861191,73.944160 83.773987,77.206192 
	C83.830902,79.333313 84.182770,81.244331 84.590302,83.593384 
	C85.053513,87.437897 85.461067,90.844376 85.906815,94.527023 
	C86.666435,94.601868 87.387840,94.400558 88.212082,93.918808 
	C88.877396,93.092743 89.439873,92.547119 90.327141,91.980652 
	C91.101524,91.306877 91.551125,90.653954 92.195801,89.752899 
	C92.689537,88.742867 92.988197,87.980949 93.156807,87.152847 
	C93.026764,87.086662 93.268227,87.250610 93.575142,87.177116 
	C94.266533,86.407677 94.651016,85.711723 95.035500,85.015778 
	C95.693245,84.309883 96.350990,83.603989 97.541336,82.512856 
	C104.670334,82.158813 111.266731,82.190010 117.863129,82.221207 
	C116.953781,83.911713 116.044434,85.602211 115.034935,87.614120 
	C112.920090,89.991295 110.905396,92.047058 108.786713,94.432281 
z"/>
<path fill="#F5ECEC" opacity="1.000000" stroke="none" 
	d="
M42.120743,77.367020 
	C37.346226,77.217079 32.553329,76.743896 27.802691,77.013992 
	C23.596146,77.253143 22.203356,75.247574 21.817625,71.618645 
	C20.676868,60.886425 23.627918,52.003307 33.362034,45.773113 
	C33.834618,45.371601 34.176506,45.280113 35.147232,45.116653 
	C38.514874,44.349182 41.253677,43.653683 43.992481,42.958183 
	C45.061756,42.998352 46.131035,43.038521 47.856102,43.242931 
	C49.364693,43.568523 50.217487,43.729870 51.070286,43.891220 
	C51.070286,43.891220 51.013680,43.967197 50.996780,44.371330 
	C51.118572,45.887753 51.257256,47.000042 51.395943,48.112328 
	C51.250481,50.778393 51.105019,53.444462 50.791157,56.858826 
	C50.647888,59.753559 50.673023,61.900002 50.698158,64.046440 
	C50.627861,64.781311 50.557564,65.516182 50.245537,66.825615 
	C49.355782,70.682854 48.707752,73.965530 47.634148,77.235214 
	C45.512623,77.270485 43.816685,77.318756 42.120743,77.367020 
z"/>
<path fill="#F5EBEB" opacity="1.000000" stroke="none" 
	d="
M66.341904,52.289879 
	C66.931152,53.218578 67.208893,54.195835 67.731590,55.017208 
	C70.303841,59.059219 71.428589,59.035091 74.738708,54.983124 
	C75.424095,56.314518 75.695023,57.634998 75.897644,59.348747 
	C75.759956,60.802555 75.690582,61.863102 75.456284,63.075394 
	C75.111107,63.482887 75.033440,63.766720 74.968643,64.468246 
	C74.724464,66.173538 74.570023,67.489227 74.169525,68.880142 
	C73.889198,69.628777 73.854919,70.302185 73.800980,71.292435 
	C73.638496,72.005638 73.495682,72.401993 73.124649,72.895203 
	C72.934387,73.661705 72.972343,74.331367 73.002151,75.423775 
	C72.509712,78.836487 72.025421,81.826447 71.182518,84.832169 
	C70.219543,84.225227 69.197525,83.675644 69.073776,82.968796 
	C67.363464,73.199471 65.755417,63.411819 64.235519,53.611103 
	C64.173637,53.212105 65.227287,52.640110 65.761208,52.148720 
	C65.761208,52.148720 66.143333,52.266575 66.341904,52.289879 
z"/>
<path fill="#E22929" opacity="1.000000" stroke="none" 
	d="
M74.415573,68.804916 
	C74.570023,67.489227 74.724464,66.173538 75.235733,64.379768 
	C75.602097,63.575676 75.611656,63.249664 75.621208,62.923649 
	C75.690582,61.863102 75.759956,60.802555 76.243530,59.206375 
	C79.049728,59.066105 79.452057,60.089359 78.943855,63.119762 
	C78.329514,66.783035 77.958717,70.487144 77.482513,74.173584 
	C77.338608,75.192474 77.194695,76.211365 76.814774,77.835602 
	C76.608650,79.029068 76.638527,79.617188 76.668396,80.205307 
	C76.528267,80.603348 76.388138,81.001381 75.915062,81.912094 
	C74.671570,85.659348 73.761024,88.893929 72.850487,92.128502 
	C72.176315,92.075989 71.502151,92.023468 70.482437,91.587692 
	C70.604973,89.075089 71.073044,86.945747 71.541122,84.816414 
	C72.025421,81.826447 72.509712,78.836487 73.228661,75.204590 
	C73.426498,73.974556 73.389687,73.386452 73.352867,72.798355 
	C73.495682,72.401993 73.638496,72.005638 74.085205,71.130997 
	C74.397919,70.036789 74.406746,69.420853 74.415573,68.804916 
z"/>
<path fill="#EEA9A9" opacity="1.000000" stroke="none" 
	d="
M71.182510,84.832169 
	C71.073044,86.945747 70.604973,89.075089 69.977264,91.542831 
	C68.573448,87.916748 66.937057,84.026749 66.166878,79.972214 
	C64.573265,71.582794 63.389584,63.113174 62.169750,54.657429 
	C61.972321,53.288853 62.456154,51.821991 62.625080,50.400562 
	C63.618252,50.746471 64.611427,51.092381 65.682907,51.793507 
	C65.227287,52.640110 64.173637,53.212105 64.235519,53.611103 
	C65.755417,63.411819 67.363464,73.199471 69.073776,82.968796 
	C69.197525,83.675644 70.219543,84.225227 71.182510,84.832169 
z"/>
<path fill="#EFAAAA" opacity="1.000000" stroke="none" 
	d="
M72.809052,92.310333 
	C73.761024,88.893929 74.671570,85.659348 75.899872,82.229782 
	C75.428925,87.797348 74.652802,93.561676 73.843468,99.321335 
	C73.613907,100.955025 73.625175,102.743584 72.919266,104.158386 
	C72.056183,105.888214 70.554512,107.299423 69.328979,108.848412 
	C68.409126,107.027519 67.489265,105.206619 67.182762,103.354820 
	C68.110504,104.183601 68.424889,105.043289 68.739265,105.902977 
	C69.485550,105.205490 70.736305,104.604553 70.891449,103.793938 
	C71.590988,100.138741 71.980103,96.424133 72.481094,92.730942 
	C72.481094,92.730942 72.767624,92.492157 72.809052,92.310333 
z"/>
<path fill="#DF0F0F" opacity="1.000000" stroke="none" 
	d="
M72.177803,92.909668 
	C71.980103,96.424133 71.590988,100.138741 70.891449,103.793938 
	C70.736305,104.604553 69.485550,105.205490 68.739265,105.902977 
	C68.424889,105.043289 68.110504,104.183601 67.464264,103.159119 
	C66.988289,101.965515 66.844177,100.936707 66.787369,99.194992 
	C66.873451,98.002075 66.872223,97.522064 66.870995,97.042053 
	C68.538834,95.724174 70.206673,94.406288 72.177803,92.909668 
z"/>
<path fill="#E65252" opacity="1.000000" stroke="none" 
	d="
M48.059727,77.248207 
	C48.707752,73.965530 49.355782,70.682854 50.291584,67.192894 
	C51.243431,66.834221 51.907497,66.682831 53.070908,66.267883 
	C53.759590,66.019455 53.948925,66.034576 54.138256,66.049690 
	C54.100712,67.515610 54.063164,68.981537 53.451553,70.837524 
	C52.241653,72.465263 51.605820,73.702942 50.948975,75.253342 
	C49.971886,76.126770 49.015808,76.687492 48.059727,77.248207 
z"/>
<path fill="#E65252" opacity="1.000000" stroke="none" 
	d="
M43.733749,42.704353 
	C41.253677,43.653683 38.514874,44.349182 35.379795,44.986664 
	C37.814018,44.102608 40.644516,43.276566 43.733749,42.704353 
z"/>
<path fill="#E65252" opacity="1.000000" stroke="none" 
	d="
M51.007179,63.813957 
	C50.673023,61.900002 50.647888,59.753559 50.824837,57.305653 
	C51.123348,59.196613 51.219776,61.389042 51.007179,63.813957 
z"/>
<path fill="#E65252" opacity="1.000000" stroke="none" 
	d="
M51.700218,48.000763 
	C51.257256,47.000042 51.118572,45.887753 51.041462,44.355587 
	C51.403526,45.253536 51.704010,46.571365 51.700218,48.000763 
z"/>
<path fill="#EFAAAA" opacity="1.000000" stroke="none" 
	d="
M54.984692,59.998901 
	C55.047630,61.207275 55.110569,62.415649 54.717621,63.874832 
	C54.080154,64.111420 53.898575,64.097198 53.716991,64.082977 
	C53.836376,63.000404 53.955757,61.917835 54.295990,60.424408 
	C54.516842,60.013554 54.984692,59.998901 54.984692,59.998901 
z"/>
<path fill="#E65252" opacity="1.000000" stroke="none" 
	d="
M51.036789,43.578709 
	C50.217487,43.729870 49.364693,43.568523 48.255981,43.203346 
	C49.001148,43.088413 50.002220,43.177307 51.036789,43.578709 
z"/>
<path fill="#E44242" opacity="1.000000" stroke="none" 
	d="
M54.974205,59.606941 
	C54.984692,59.998901 54.516842,60.013554 54.282898,60.015022 
	C54.040031,59.036915 54.031105,58.057335 54.312813,57.000206 
	C54.723541,57.686768 54.843628,58.450874 54.974205,59.606941 
z"/>
<path fill="#EFAAAA" opacity="1.000000" stroke="none" 
	d="
M58.463310,46.908310 
	C57.666695,47.065556 56.918121,46.925026 55.833237,46.588661 
	C56.501736,46.465401 57.506538,46.537968 58.463310,46.908310 
z"/>
<path fill="#EFAAAA" opacity="1.000000" stroke="none" 
	d="
M61.520035,67.895149 
	C61.092278,67.555183 60.808243,66.927177 60.724068,66.155884 
	C61.170540,66.544098 61.417149,67.075600 61.520035,67.895149 
z"/>
<path fill="#EFAAAA" opacity="1.000000" stroke="none" 
	d="
M66.628998,97.039337 
	C66.872223,97.522064 66.873451,98.002075 66.722946,98.809326 
	C66.206421,98.528191 65.841629,97.919823 65.690018,97.166641 
	C65.903206,97.021828 66.387001,97.036613 66.628998,97.039337 
z"/>
<path fill="#EFAAAA" opacity="1.000000" stroke="none" 
	d="
M63.520271,80.897537 
	C63.106014,80.551834 62.838387,79.921204 62.770332,79.147774 
	C63.202244,79.540848 63.434578,80.076729 63.520271,80.897537 
z"/>
<path fill="#E44242" opacity="1.000000" stroke="none" 
	d="
M53.511040,64.256363 
	C53.898575,64.097198 54.080154,64.111420 54.531963,64.161720 
	C54.695034,64.690727 54.587879,65.183662 54.309490,65.863144 
	C53.948925,66.034576 53.759590,66.019455 53.285358,66.002319 
	C53.102005,65.476791 53.203548,64.953270 53.511040,64.256363 
z"/>
<path fill="#EFAAAA" opacity="1.000000" stroke="none" 
	d="
M65.549034,93.888283 
	C65.127945,93.549942 64.844009,92.922691 64.760857,92.150879 
	C65.203156,92.537346 65.444672,93.068352 65.549034,93.888283 
z"/>
<path fill="#EFAAAA" opacity="1.000000" stroke="none" 
	d="
M62.660458,72.855942 
	C62.172844,72.540833 61.816357,71.926308 61.670006,71.166092 
	C62.183956,71.532440 62.487770,72.044495 62.660458,72.855942 
z"/>
<path fill="#EFAAAA" opacity="1.000000" stroke="none" 
	d="
M64.672577,86.845779 
	C64.205406,86.533890 63.850922,85.919746 63.706772,85.159782 
	C64.206490,85.523811 64.495872,86.033669 64.672577,86.845779 
z"/>
<path fill="#EFAAAA" opacity="1.000000" stroke="none" 
	d="
M59.541679,55.892700 
	C59.124603,55.549908 58.851173,54.920609 58.778847,54.147312 
	C59.215073,54.537609 59.450195,55.071907 59.541679,55.892700 
z"/>
<path fill="#EFAAAA" opacity="1.000000" stroke="none" 
	d="
M60.666801,60.851608 
	C60.176643,60.539936 59.811913,59.926945 59.658051,59.168121 
	C60.176689,59.531620 60.484459,60.040958 60.666801,60.851608 
z"/>
<path fill="#E44343" opacity="1.000000" stroke="none" 
	d="
M70.072990,119.667160 
	C70.744431,119.298561 71.495293,119.223579 72.624146,119.150658 
	C72.052231,119.422081 71.102318,119.691437 70.072990,119.667160 
z"/>
<path fill="#E44343" opacity="1.000000" stroke="none" 
	d="
M67.056946,117.473022 
	C67.636917,117.570633 68.276550,117.980133 69.028259,118.668411 
	C68.465759,118.559761 67.791183,118.172348 67.056946,117.473022 
z"/>
<path fill="#E44343" opacity="1.000000" stroke="none" 
	d="
M39.058220,99.430862 
	C39.652027,99.527054 40.305531,99.945282 41.084805,100.641586 
	C40.513023,100.530739 39.815472,100.141815 39.058220,99.430862 
z"/>
<path fill="#DF1010" opacity="1.000000" stroke="none" 
	d="
M47.634148,77.235214 
	C49.015808,76.687492 49.971886,76.126770 51.327255,75.247391 
	C52.228760,74.893486 52.730972,74.858231 53.233185,74.822983 
	C53.233185,74.822983 53.464115,74.815361 53.347427,75.172249 
	C53.285419,76.398216 53.340103,77.267288 53.394783,78.136368 
	C51.590881,79.155388 49.822880,80.969772 47.976738,81.053101 
	C40.724487,81.380455 33.447632,81.162575 25.373859,81.100616 
	C24.097231,81.521240 23.626654,81.988396 23.156076,82.455559 
	C18.804962,81.324532 14.453845,80.193504 11.023285,79.301765 
	C18.780602,75.596786 27.815413,80.017647 36.725311,79.021286 
	C38.459179,78.827385 40.170822,78.434677 42.006729,77.750351 
	C43.816685,77.318756 45.512623,77.270485 47.634148,77.235214 
z"/>
<path fill="#DF1010" opacity="1.000000" stroke="none" 
	d="
M18.994812,62.961151 
	C19.495567,65.691948 19.942781,68.795677 20.389997,71.899406 
	C19.907089,71.934113 19.424179,71.968819 18.941271,72.003517 
	C18.941271,69.113708 18.941271,66.223900 18.994812,62.961151 
z"/>
<path fill="#E44343" opacity="1.000000" stroke="none" 
	d="
M23.339001,82.611938 
	C23.626654,81.988396 24.097231,81.521240 24.922960,81.114380 
	C25.228428,81.581902 25.178743,81.989113 25.053223,82.696609 
	C24.492231,82.920692 24.007078,82.844498 23.339001,82.611938 
z"/>
<path fill="#F5EBEB" opacity="1.000000" stroke="none" 
	d="
M98.590729,43.157627 
	C107.715004,44.226124 114.945114,47.776806 119.571640,56.069595 
	C120.232315,61.821758 120.567230,67.438934 120.679100,73.728157 
	C119.977791,75.305176 119.499527,76.210159 119.021263,77.115143 
	C112.916710,77.158478 106.780899,76.860901 100.723267,77.416145 
	C98.363228,77.632462 96.179268,79.769844 93.607857,81.531380 
	C92.544022,83.033951 91.787445,84.037323 90.640717,84.915298 
	C89.808624,83.029404 89.290062,81.283852 88.942856,79.504860 
	C88.432251,76.888596 88.043961,74.248459 87.587914,71.206573 
	C87.416824,68.858109 87.261383,66.921547 87.390823,64.726158 
	C87.166046,61.937702 86.656380,59.408085 86.146713,56.878464 
	C86.542023,52.728325 86.937332,48.578186 88.056244,44.321388 
	C90.861389,43.824665 92.942932,43.434605 95.024467,43.044544 
	C96.084473,43.119102 97.144485,43.193657 98.590729,43.157627 
z"/>
<path fill="#E01B1B" opacity="1.000000" stroke="none" 
	d="
M91.030861,85.040695 
	C91.787445,84.037323 92.544022,83.033951 93.612076,81.916763 
	C93.948463,82.563766 93.973389,83.324577 93.768105,84.713455 
	C93.448006,85.977882 93.358116,86.614250 93.268234,87.250610 
	C93.268227,87.250610 93.026764,87.086662 92.838905,87.185471 
	C92.073662,88.115562 91.496277,88.946854 90.673485,89.981155 
	C90.286171,90.789940 90.144264,91.395721 90.002357,92.001503 
	C89.439873,92.547119 88.877396,93.092743 87.838898,93.863937 
	C86.864792,94.143288 86.366699,94.197075 85.868614,94.250854 
	C85.461067,90.844376 85.053513,87.437897 84.746864,83.207680 
	C84.588158,80.585999 84.328545,78.788048 84.068939,76.990097 
	C83.861191,73.944160 83.653442,70.898216 83.603760,67.253922 
	C83.879784,66.092033 83.997757,65.528496 84.115723,64.964958 
	C84.521172,64.975288 84.926628,64.985626 85.928719,65.042999 
	C86.718895,65.055023 86.912422,65.020004 87.105949,64.984993 
	C87.261383,66.921547 87.416824,68.858109 87.373322,71.662827 
	C87.167366,76.422028 87.065483,80.316948 87.224709,84.201164 
	C87.261314,85.094124 88.194679,85.950310 88.715347,86.823418 
	C89.487183,86.229172 90.259026,85.634933 91.030861,85.040695 
z"/>
<path fill="#E54848" opacity="1.000000" stroke="none" 
	d="
M117.806610,81.816177 
	C111.266731,82.190010 104.670334,82.158813 97.623909,82.233246 
	C97.356369,81.890930 97.543076,81.049881 97.720749,81.051788 
	C104.397713,81.123283 111.073845,81.272446 117.806610,81.816177 
z"/>
<path fill="#E65757" opacity="1.000000" stroke="none" 
	d="
M119.201729,77.333763 
	C119.499527,76.210159 119.977791,75.305176 120.682266,74.194000 
	C120.399727,75.175987 119.890961,76.364182 119.201729,77.333763 
z"/>
<path fill="#E54848" opacity="1.000000" stroke="none" 
	d="
M93.575150,87.177116 
	C93.358116,86.614250 93.448006,85.977882 93.768768,85.094131 
	C94.173363,84.868271 94.347084,84.889801 94.778152,84.963554 
	C94.651016,85.711723 94.266533,86.407677 93.575150,87.177116 
z"/>
<path fill="#EFAAAA" opacity="1.000000" stroke="none" 
	d="
M77.808525,74.018585 
	C77.958717,70.487144 78.329514,66.783035 78.943855,63.119762 
	C79.452057,60.089359 79.049728,59.066105 76.311829,58.813110 
	C75.695023,57.634998 75.424095,56.314518 74.886017,54.645992 
	C75.041298,53.772034 75.463730,53.246120 75.951416,52.455978 
	C78.051376,52.191753 80.086082,52.191753 82.895027,52.191753 
	C82.993279,53.151512 83.150887,54.691036 83.168365,56.608002 
	C82.019196,59.738407 80.858147,62.447304 80.043793,65.256699 
	C79.227303,68.073471 78.756721,70.990501 77.808525,74.018585 
z"/>
<path fill="#EA7777" opacity="1.000000" stroke="none" 
	d="
M87.390823,64.726158 
	C86.912422,65.020004 86.718895,65.055023 86.232803,65.051285 
	C85.932457,62.594982 85.924675,60.177425 86.031807,57.319164 
	C86.656380,59.408085 87.166046,61.937702 87.390823,64.726158 
z"/>
<path fill="#E22727" opacity="1.000000" stroke="none" 
	d="
M94.986191,42.731243 
	C92.942932,43.434605 90.861389,43.824665 88.390640,44.111874 
	C87.985588,43.353237 87.969742,42.697449 87.913055,41.720230 
	C90.230782,41.738510 92.589348,42.078224 94.986191,42.731243 
z"/>
<path fill="#EFAAAA" opacity="1.000000" stroke="none" 
	d="
M83.903931,64.909370 
	C83.997757,65.528496 83.879784,66.092033 83.543732,66.842865 
	C83.128380,66.420898 82.931129,65.811638 82.996895,65.063271 
	C83.259911,64.924164 83.692146,64.853783 83.903931,64.909370 
z"/>
<path fill="#EFAAAA" opacity="1.000000" stroke="none" 
	d="
M83.773987,77.206192 
	C84.328545,78.788048 84.588158,80.585999 84.691208,82.769653 
	C84.182770,81.244331 83.830902,79.333313 83.773987,77.206192 
z"/>
<path fill="#E44343" opacity="1.000000" stroke="none" 
	d="
M53.403839,74.478241 
	C52.730972,74.858231 52.228760,74.893486 51.348267,74.934677 
	C51.605820,73.702942 52.241653,72.465263 53.257561,71.150024 
	C53.616585,72.092804 53.595539,73.113159 53.403839,74.478241 
z"/>
<path fill="#EFAAAA" opacity="1.000000" stroke="none" 
	d="
M53.682781,78.070175 
	C53.340103,77.267288 53.285419,76.398216 53.460438,75.148285 
	C53.783684,75.846275 53.877232,76.925125 53.682781,78.070175 
z"/>
<path fill="#E54848" opacity="1.000000" stroke="none" 
	d="
M90.918900,89.778145 
	C91.496277,88.946854 92.073662,88.115562 92.968948,87.251656 
	C92.988197,87.980949 92.689537,88.742867 91.924927,89.699219 
	C91.278946,89.855164 91.098923,89.816650 90.918900,89.778145 
z"/>
<path fill="#EFAAAA" opacity="1.000000" stroke="none" 
	d="
M85.906815,94.527023 
	C86.366699,94.197075 86.864792,94.143288 87.736069,94.144379 
	C87.387840,94.400558 86.666435,94.601868 85.906815,94.527023 
z"/>
<path fill="#EFAAAA" opacity="1.000000" stroke="none" 
	d="
M90.673485,89.981155 
	C91.098923,89.816650 91.278946,89.855164 91.729843,89.947350 
	C91.551125,90.653954 91.101524,91.306877 90.327141,91.980652 
	C90.144264,91.395721 90.286171,90.789940 90.673485,89.981155 
z"/>
<path fill="#EFAAAA" opacity="1.000000" stroke="none" 
	d="
M76.894409,80.108353 
	C76.638527,79.617188 76.608650,79.029068 76.805832,78.222183 
	C77.062073,78.672737 77.091248,79.342064 76.894409,80.108353 
z"/>
<path fill="#EEA9A9" opacity="1.000000" stroke="none" 
	d="
M73.124649,72.895203 
	C73.389687,73.386452 73.426498,73.974556 73.236801,74.781845 
	C72.972343,74.331367 72.934387,73.661705 73.124649,72.895203 
z"/>
<path fill="#EEA9A9" opacity="1.000000" stroke="none" 
	d="
M74.169525,68.880142 
	C74.406746,69.420853 74.397919,70.036789 74.104866,70.814163 
	C73.854919,70.302185 73.889198,69.628777 74.169525,68.880142 
z"/>
<path fill="#EEA9A9" opacity="1.000000" stroke="none" 
	d="
M75.456284,63.075394 
	C75.611656,63.249664 75.602097,63.575676 75.325455,63.990166 
	C75.033440,63.766720 75.111107,63.482887 75.456284,63.075394 
z"/>
<path fill="#EA7777" opacity="1.000000" stroke="none" 
	d="
M90.640717,84.915298 
	C90.259026,85.634933 89.487183,86.229172 88.715347,86.823418 
	C88.194679,85.950310 87.261314,85.094124 87.224709,84.201164 
	C87.065483,80.316948 87.167366,76.422028 87.388977,72.074738 
	C88.043961,74.248459 88.432251,76.888596 88.942856,79.504860 
	C89.290062,81.283852 89.808624,83.029404 90.640717,84.915298 
z"/>
</svg>