<?xml version="1.0" standalone="no"?>
<!DOCTYPE svg PUBLIC "-//W3C//DTD SVG 20010904//EN"
 "http://www.w3.org/TR/2001/REC-SVG-20010904/DTD/svg10.dtd">
<svg version="1.0" xmlns="http://www.w3.org/2000/svg"
 width="60.000000pt" height="100.000000pt" viewBox="0 0 60.000000 100.000000"
 preserveAspectRatio="xMidYMid meet">

<g transform="translate(0.000000,100.000000) scale(0.100000,-0.100000)"
fill="#000000" stroke="none">
<path d="M43 955 c-24 -25 -43 -53 -43 -62 0 -10 81 -101 180 -202 99 -101
180 -187 180 -191 0 -4 -81 -90 -180 -191 -99 -101 -180 -192 -180 -202 0 -23
84 -107 108 -107 27 0 492 473 492 500 0 30 -466 500 -494 499 -12 0 -40 -20
-63 -44z"/>
</g>
</svg>
