<svg version="1.1" id="Layer_1" xmlns="http://www.w3.org/2000/svg" xmlns:xlink="http://www.w3.org/1999/xlink" x="0px" y="0px"
	 width="100%" viewBox="0 0 140 140" enable-background="new 0 0 140 140" xml:space="preserve">
<path fill="#F6F4F4" opacity="1.000000" stroke="none" 
	d="
M81.000000,141.000000 
	C54.000000,141.000000 27.500000,141.000000 1.000000,141.000000 
	C1.000000,94.333336 1.000000,47.666668 1.000000,1.000000 
	C47.666668,1.000000 94.333336,1.000000 141.000000,1.000000 
	C141.000000,47.666668 141.000000,94.333336 141.000000,141.000000 
	C121.166664,141.000000 101.333336,141.000000 81.000000,141.000000 
M12.999942,63.000610 
	C12.999942,63.000610 13.014340,62.991947 13.170608,63.562824 
	C13.785881,63.984241 14.401155,64.405655 15.476175,65.315186 
	C18.642599,67.880104 21.809023,70.445015 25.155905,73.574402 
	C25.776384,73.987549 26.396864,74.400703 27.483669,75.298012 
	C30.643549,77.870331 33.803429,80.442650 37.154182,83.574951 
	C37.775635,83.982651 38.397087,84.390350 39.488575,85.279037 
	C42.655098,87.854279 45.821621,90.429520 49.166065,93.568008 
	C49.783257,93.982109 50.400448,94.396202 51.482883,95.295784 
	C54.663017,97.860802 57.843151,100.425819 61.200039,103.545616 
	C61.807049,103.954483 62.414062,104.363358 63.487812,105.266479 
	C68.572937,108.786476 73.658066,112.306473 78.853218,116.350548 
	C80.065163,116.588432 81.277107,116.826317 83.208763,117.261627 
	C83.447418,117.331375 83.686081,117.401123 84.123497,118.071838 
	C85.749641,118.374550 87.375786,118.677269 89.791756,118.984360 
	C90.561356,118.876244 91.330956,118.768120 93.000671,118.865913 
	C97.973083,118.821213 102.945503,118.776520 108.696373,119.010384 
	C109.797813,119.009506 110.899246,119.008621 112.477951,119.520493 
	C116.681175,118.176331 120.884407,116.832169 125.900391,115.328278 
	C127.268089,115.204315 128.635788,115.080353 130.438156,115.442749 
	C132.021194,115.081558 133.650116,114.855255 135.179031,114.335007 
	C140.734314,112.444725 141.301865,109.900360 137.208588,104.096939 
	C137.071243,102.757538 136.933884,101.418137 137.327942,99.762451 
	C136.670380,98.468178 136.012802,97.173904 135.002563,95.396721 
	C134.563385,94.734955 134.124207,94.073181 133.835251,92.672859 
	C132.082474,89.598396 129.868149,87.524330 125.260925,89.053864 
	C124.545967,88.913765 123.831017,88.773666 122.884766,87.991074 
	C120.581123,87.708977 118.277481,87.426888 115.153732,87.127876 
	C113.843445,86.809929 112.533157,86.491989 111.161430,85.626709 
	C110.424797,85.480453 109.688171,85.334206 108.290329,85.133316 
	C107.425903,84.958130 106.561470,84.782944 105.468857,84.017403 
	C105.009903,83.582230 104.550957,83.147057 103.976402,82.060890 
	C100.661957,79.032700 97.347504,76.004501 93.999359,72.999527 
	C93.999359,72.999527 94.026123,72.968102 94.084915,72.265175 
	C93.397690,71.504601 92.710464,70.744034 91.999695,70.000000 
	C91.999695,70.000000 92.018410,69.977722 92.072037,69.271210 
	C91.371674,68.521538 90.671318,67.771873 90.000305,67.000000 
	C90.000305,67.000000 89.975471,67.027328 90.025871,66.321808 
	C89.369644,65.537277 88.713425,64.752754 87.562523,63.543339 
	C86.721664,62.026386 85.880806,60.509430 85.491455,58.641376 
	C84.937019,58.127834 84.382591,57.614292 83.389656,56.611431 
	C82.674072,55.278614 81.958488,53.945793 81.594040,51.931702 
	C81.013077,51.318821 80.432121,50.705944 79.389854,49.614384 
	C77.280937,47.688133 75.172020,45.761883 72.929749,43.143013 
	C71.270294,43.398033 69.610847,43.653053 67.675217,44.308331 
	C67.413658,44.505695 67.189232,44.738815 66.382477,44.988674 
	C65.910828,45.745453 65.439178,46.502235 64.903282,48.068699 
	C65.093582,48.261284 65.283875,48.453865 65.488625,48.706760 
	C65.488625,48.706760 65.467705,48.883396 64.876091,47.907467 
	C63.958759,48.409428 63.041424,48.911392 61.306515,49.324032 
	C60.501770,49.486076 59.697029,49.648121 58.422371,49.320911 
	C57.993969,49.190063 57.565563,49.059212 56.903217,48.382900 
	C56.248322,48.027126 55.593422,47.671352 54.455063,46.842945 
	C52.528961,44.916092 50.602856,42.989239 48.688042,40.472961 
	C48.140926,39.951424 47.593807,39.429890 46.946987,38.432663 
	C46.946987,38.432663 46.625347,38.068283 46.688530,37.477638 
	C46.166523,36.909416 45.644516,36.341194 45.077408,35.156086 
	C44.883301,34.797905 44.689190,34.439724 44.629787,33.491184 
	C44.160774,32.861042 43.691765,32.230904 43.290920,31.056177 
	C43.198101,30.705124 43.105286,30.354071 43.288963,29.644547 
	C43.110462,29.119106 42.931957,28.593666 42.838123,27.384714 
	C42.707272,26.950331 42.576420,26.515947 42.709698,25.455624 
	C42.197540,24.532200 41.685379,23.608778 41.128304,22.132116 
	C40.769020,21.746515 40.409737,21.360914 39.856556,20.336937 
	C37.708103,20.106085 35.559654,19.875233 32.838505,19.741766 
	C32.245735,20.209270 31.652967,20.676775 30.447659,21.176464 
	C29.970261,21.786722 29.492865,22.396980 28.409201,23.292770 
	C26.105284,25.758615 23.801367,28.224461 20.887524,30.908703 
	C19.385143,32.524208 17.882763,34.139717 15.772409,35.814789 
	C14.750198,37.022331 13.727988,38.229874 12.086514,39.707115 
	C10.731780,41.149117 9.377048,42.591114 7.389664,44.107407 
	C6.667991,45.081146 5.946319,46.054886 4.913992,47.263947 
	C4.913992,47.263947 4.848709,47.648163 4.254352,48.043510 
	C4.455268,50.139397 4.656184,52.235287 4.884656,54.717003 
	C4.884656,54.717003 5.164299,54.984253 5.208911,55.586166 
	C5.803137,56.079224 6.397363,56.572285 7.285528,57.623161 
	C8.501862,58.757717 9.718195,59.892277 11.095593,61.619217 
	C11.732924,62.074875 12.370255,62.530537 12.999942,63.000610 
z"/>
<path fill="#E33131" opacity="1.000000" stroke="none" 
	d="
M43.012466,30.003017 
	C43.105286,30.354071 43.198101,30.705124 43.188660,31.647350 
	C43.555962,32.852867 44.025520,33.467205 44.495079,34.081543 
	C44.689190,34.439724 44.883301,34.797905 45.064632,35.779984 
	C45.576355,36.958683 46.100849,37.513481 46.625347,38.068283 
	C46.625347,38.068283 46.946987,38.432663 46.985649,38.980240 
	C47.575123,40.039337 48.125938,40.550861 48.676754,41.062386 
	C50.602856,42.989239 52.528961,44.916092 54.761448,47.384102 
	C55.757610,48.259628 56.447384,48.593994 57.137161,48.928364 
	C57.565563,49.059212 57.993969,49.190063 58.764118,49.818237 
	C60.081593,50.879581 61.057320,51.443604 62.246040,52.117485 
	C62.719490,52.430698 62.899933,52.689793 63.097511,53.280479 
	C62.428791,54.049061 61.662918,54.541794 60.611404,54.878986 
	C59.180141,54.233456 58.034512,53.743458 56.598793,53.097725 
	C54.837410,51.985695 53.366116,51.029404 51.819839,49.750885 
	C49.815792,47.638687 47.886719,45.848717 45.794765,43.774124 
	C44.420525,41.660080 43.209171,39.830662 41.986458,37.640400 
	C40.980988,35.186771 39.986874,33.093990 38.982933,30.682232 
	C38.882725,29.948273 38.792347,29.533289 38.801647,28.753006 
	C37.937782,26.707304 36.974232,25.026905 35.619232,23.362841 
	C30.028873,25.138731 30.455673,28.254810 33.111588,32.239510 
	C33.653046,33.379917 34.250774,34.202785 34.921143,35.360428 
	C35.723881,37.101959 36.453979,38.508705 37.131119,40.232742 
	C37.788200,41.551815 38.498241,42.553593 39.286110,43.822865 
	C39.563107,44.401356 39.762272,44.712357 39.976715,45.364761 
	C41.090946,47.321072 42.189892,48.935978 43.421120,50.857887 
	C44.692146,52.782574 45.830891,54.400249 46.971848,56.365631 
	C48.654144,58.801884 50.334229,60.890427 52.154305,63.167755 
	C52.495644,63.597401 52.712795,63.823055 52.959633,64.363327 
	C54.018623,65.740631 55.063732,66.788124 56.283638,68.119461 
	C59.686001,71.570717 62.913559,74.738113 66.205177,78.227188 
	C67.486031,79.403740 68.702827,80.258629 70.058884,81.301010 
	C70.406052,81.727264 70.653648,81.913170 71.049240,82.360367 
	C72.447586,83.434914 73.737625,84.195328 75.227417,85.189575 
	C76.283257,85.958519 77.139343,86.493622 78.128120,87.334671 
	C79.821564,88.449471 81.382309,89.258316 82.969452,90.032578 
	C82.995834,89.997978 82.933960,90.060394 82.980019,90.422668 
	C85.300018,91.854324 87.479729,93.495651 89.865112,93.888695 
	C97.865623,95.206924 105.939537,96.079697 113.989929,97.451469 
	C113.975357,98.649094 113.956200,99.518250 113.529602,100.494255 
	C111.434883,100.656265 109.747604,100.711418 107.938728,100.413712 
	C105.207611,100.052025 102.598083,100.043205 99.613953,100.048843 
	C97.827545,99.700577 96.415764,99.337860 94.820984,98.648270 
	C90.097672,96.870934 85.557350,95.420464 80.798981,93.807358 
	C80.243561,93.515335 79.906197,93.385956 79.395775,92.986557 
	C77.132095,91.504730 75.041458,90.292931 72.747383,88.839706 
	C71.349998,87.740204 70.156052,86.882133 68.869308,85.709526 
	C67.202599,84.244789 65.628693,83.094582 63.850632,81.684235 
	C59.315853,76.997444 54.985226,72.570786 50.635807,67.836380 
	C49.744995,66.685242 48.872974,65.841850 47.870682,64.806412 
	C47.548847,64.370102 47.336254,64.145767 47.080936,63.589821 
	C43.736042,58.486111 40.412846,53.733929 37.027576,48.697044 
	C36.660480,47.931122 36.355453,47.449909 36.050583,46.665779 
	C35.585644,45.722157 35.120552,45.081448 34.619698,44.241257 
	C34.583939,44.041782 34.354103,43.707935 34.321510,43.350067 
	C32.696777,39.737930 31.317490,36.350086 29.402452,33.298450 
	C28.686808,32.158066 26.721926,31.801636 24.846447,31.058331 
	C23.409979,30.916042 22.453714,30.803173 21.497448,30.690304 
	C23.801367,28.224461 26.105284,25.758615 29.025566,23.130531 
	C30.114687,22.360287 30.587444,21.752283 31.060200,21.144279 
	C31.652967,20.676775 32.245735,20.209270 33.554718,19.794048 
	C36.197437,20.222658 38.123943,20.598984 40.050453,20.975311 
	C40.409737,21.360914 40.769020,21.746515 41.083824,22.750172 
	C41.508083,24.272673 41.976822,25.177118 42.445564,26.081566 
	C42.576420,26.515947 42.707272,26.950331 42.601852,27.885883 
	C42.581211,28.925709 42.796841,29.464363 43.012466,30.003017 
z"/>
<path fill="#E44242" opacity="1.000000" stroke="none" 
	d="
M5.164299,54.984253 
	C5.164299,54.984253 4.884656,54.717003 4.917669,54.047302 
	C4.916690,51.467793 4.882699,49.557976 4.848709,47.648163 
	C4.848709,47.648163 4.913992,47.263947 5.345716,47.144653 
	C6.422834,46.796997 7.068227,46.568630 8.108112,46.298004 
	C10.457161,45.171391 12.411717,44.087044 14.465673,43.330017 
	C14.852525,45.023834 15.139977,46.390335 15.059907,47.839371 
	C14.098550,48.332012 13.504717,48.742119 12.593291,48.977654 
	C10.934594,49.087677 9.593489,49.372269 8.252384,49.656864 
	C8.790967,51.157513 9.329551,52.658161 10.055302,54.429203 
	C24.253057,66.657852 38.193844,78.699265 52.301659,90.541702 
	C60.171673,97.147995 68.319366,103.423477 76.346802,110.202599 
	C77.373695,111.189713 78.369377,111.870461 79.422569,112.445961 
	C82.872696,114.331215 80.925484,115.094200 78.743195,115.826477 
	C73.658066,112.306473 68.572937,108.786476 63.200806,104.723457 
	C62.283630,103.783897 61.653458,103.387367 61.023285,102.990837 
	C57.843151,100.425819 54.663017,97.860802 51.196995,94.751495 
	C50.270119,93.806389 49.629131,93.405579 48.988144,93.004761 
	C45.821621,90.429520 42.655098,87.854279 39.197811,84.736649 
	C38.259136,83.801155 37.611225,83.408058 36.963310,83.014961 
	C33.803429,80.442650 30.643549,77.870331 27.196892,74.753098 
	C26.265223,73.808769 25.620335,73.409348 24.975447,73.009933 
	C21.809023,70.445015 18.642599,67.880104 15.195904,64.769424 
	C14.281869,63.813095 13.648105,63.402523 13.014340,62.991947 
	C13.014340,62.991947 12.999942,63.000610 12.959229,62.670700 
	C12.257187,61.902802 11.595858,61.464817 10.934528,61.026836 
	C9.718195,59.892277 8.501862,58.757717 7.113849,57.029804 
	C6.349546,55.952381 5.756923,55.468315 5.164299,54.984253 
z"/>
<path fill="#E12424" opacity="1.000000" stroke="none" 
	d="
M111.222870,86.174049 
	C112.533157,86.491989 113.843445,86.809929 115.767822,87.439392 
	C118.626633,88.045128 120.871346,88.339348 123.116058,88.633575 
	C123.831017,88.773666 124.545967,88.913765 125.833847,89.322487 
	C128.832855,90.864548 131.258942,92.137978 133.685028,93.411415 
	C134.124207,94.073181 134.563385,94.734955 135.094971,96.008682 
	C135.389679,97.853157 135.591980,99.085678 135.332138,100.482452 
	C133.898148,100.762726 132.926315,100.878746 131.904465,100.716682 
	C131.858551,100.062561 131.862625,99.686531 131.874207,98.963310 
	C131.261093,98.072845 130.640457,97.529556 129.906219,96.770554 
	C129.604080,96.269257 129.343735,96.085350 128.986832,95.637764 
	C127.933907,94.608421 126.905716,93.944435 125.497940,93.197441 
	C124.086349,93.028023 123.054337,92.941612 121.787552,92.571915 
	C119.000923,91.949272 116.449066,91.609917 113.590332,91.174896 
	C112.858215,91.036430 112.432968,90.993645 111.792557,90.672989 
	C109.069862,89.565041 106.562317,88.734955 103.914307,87.784454 
	C103.773827,87.664032 103.412773,87.582886 103.196503,87.309570 
	C100.991226,86.337067 99.002205,85.637878 96.964081,84.624725 
	C96.279228,83.864464 95.643494,83.418175 95.006561,82.600937 
	C94.635315,81.138786 94.265259,80.047600 93.818085,78.625282 
	C90.892708,75.168373 88.840477,70.815109 83.359306,71.703804 
	C83.111694,71.743942 82.569878,69.969551 82.513771,68.987762 
	C83.141647,68.276245 83.420830,67.617264 83.700020,66.958290 
	C82.716339,66.908676 81.732651,66.859062 80.438034,66.674599 
	C79.701027,66.388741 79.274956,66.237732 78.892899,65.729713 
	C79.570610,64.553970 80.204308,63.735226 81.145279,62.913910 
	C81.810051,62.526928 82.167557,62.142521 82.525063,61.758110 
	C82.016998,61.505276 81.508934,61.252438 80.597313,60.951775 
	C79.119461,60.955215 78.045158,61.006485 76.642685,60.934692 
	C76.561020,58.992096 76.807549,57.172562 77.100433,55.010838 
	C75.540962,55.153275 73.302078,55.357765 71.014786,55.230629 
	C70.696648,54.089569 70.426918,53.280132 70.505440,52.340279 
	C72.220978,51.641808 73.588257,51.073750 75.080994,50.453571 
	C72.199203,44.725159 68.616730,48.402580 65.474174,48.646450 
	C65.283875,48.453865 65.093582,48.261284 65.515060,47.551636 
	C66.418549,46.358948 66.710243,45.683323 67.001945,45.007694 
	C67.189232,44.738815 67.413658,44.505695 68.131653,44.180260 
	C70.079758,43.980003 71.571426,43.907818 73.063095,43.835632 
	C75.172020,45.761883 77.280937,47.688133 79.606071,50.158165 
	C80.295830,51.338959 80.769363,51.975967 81.242905,52.612976 
	C81.958488,53.945793 82.674072,55.278614 83.603539,57.164108 
	C84.224930,58.142014 84.632439,58.567242 85.039948,58.992474 
	C85.880806,60.509430 86.721664,62.026386 87.763878,64.083290 
	C88.635315,65.424606 89.305389,66.225967 89.975471,67.027328 
	C89.975471,67.027328 90.000305,67.000000 89.987778,67.339874 
	C90.656303,68.445732 91.337357,69.211731 92.018410,69.977722 
	C92.018410,69.977722 91.999695,70.000000 92.004608,70.322189 
	C92.681717,71.418945 93.353920,72.193520 94.026123,72.968102 
	C94.026123,72.968102 93.999359,72.999527 94.019257,73.358253 
	C96.077103,77.746582 97.426430,82.430527 103.063782,83.482452 
	C103.999588,84.097443 104.848320,84.352600 105.697044,84.607758 
	C106.561470,84.782944 107.425903,84.958130 108.707146,85.447952 
	C109.823601,85.899742 110.523232,86.036896 111.222870,86.174049 
z"/>
<path fill="#F0B9B9" opacity="1.000000" stroke="none" 
	d="
M78.798203,116.088516 
	C80.925484,115.094200 82.872696,114.331215 79.422569,112.445961 
	C78.369377,111.870461 77.373695,111.189713 76.727638,110.213341 
	C78.071060,110.092453 79.062828,110.241325 80.002274,110.549614 
	C91.238861,114.237061 102.574188,115.272591 114.241539,112.578262 
	C118.392265,111.619736 122.771431,111.650391 127.109688,111.423965 
	C127.173058,111.618439 127.195793,112.026886 126.827744,112.009605 
	C125.113770,112.735970 123.767853,113.479607 121.771629,114.582558 
	C123.550117,115.068184 124.318878,115.278091 125.087631,115.488007 
	C120.884407,116.832169 116.681175,118.176331 112.243591,118.999405 
	C112.001137,118.302010 111.993042,118.125694 112.374619,117.928551 
	C115.395683,117.161324 118.027061,116.414932 120.658447,115.668541 
	C118.800957,114.449013 116.728920,113.591202 115.159546,114.148613 
	C105.830482,117.462105 96.435730,116.060440 86.607971,114.948883 
	C84.960190,115.583038 83.724617,116.323624 82.489052,117.064201 
	C81.277107,116.826317 80.065163,116.588432 78.798203,116.088516 
z"/>
<path fill="#E01919" opacity="1.000000" stroke="none" 
	d="
M87.020187,115.055321 
	C96.435730,116.060440 105.830482,117.462105 115.159546,114.148613 
	C116.728920,113.591202 118.800957,114.449013 120.658447,115.668541 
	C118.027061,116.414932 115.395683,117.161324 112.161003,117.685745 
	C110.344444,117.886459 109.131180,118.309143 107.917915,118.731827 
	C102.945503,118.776520 97.973083,118.821213 92.483307,118.473434 
	C90.986290,118.020256 90.006645,117.959572 88.737343,117.885422 
	C87.912354,117.666763 87.377014,117.461578 86.873779,116.889519 
	C86.943985,116.033539 86.982086,115.544426 87.020187,115.055321 
z"/>
<path fill="#E01919" opacity="1.000000" stroke="none" 
	d="
M131.954468,100.994766 
	C132.926315,100.878746 133.898148,100.762726 135.467407,100.457260 
	C136.064835,100.267822 136.494171,100.321861 136.494171,100.321861 
	C136.494171,100.321861 136.796524,100.078735 136.796524,100.078735 
	C136.933884,101.418137 137.071243,102.757538 137.148376,104.906540 
	C137.029343,107.466484 136.970505,109.216827 136.580643,110.950150 
	C135.429749,110.611969 134.609879,110.290787 133.855286,109.583366 
	C134.252884,106.269180 133.074066,104.736137 129.992691,104.585884 
	C129.953369,103.734077 129.922684,103.247711 129.912384,102.489258 
	C129.918640,102.035805 129.904495,101.854454 130.172165,101.649887 
	C130.954147,101.416039 131.454315,101.205406 131.954468,100.994766 
z"/>
<path fill="#EFAAAA" opacity="1.000000" stroke="none" 
	d="
M65.481400,48.676605 
	C68.616730,48.402580 72.199203,44.725159 75.080994,50.453571 
	C73.588257,51.073750 72.220978,51.641808 70.103584,52.212265 
	C68.243347,52.109894 67.133224,52.005127 65.873428,51.783718 
	C65.723770,51.667076 65.369102,51.532070 65.393585,51.201340 
	C65.434616,50.208206 65.451164,49.545803 65.467712,48.883396 
	C65.467705,48.883396 65.488625,48.706760 65.481400,48.676605 
z"/>
<path fill="#F0B9B9" opacity="1.000000" stroke="none" 
	d="
M102.976692,83.122612 
	C97.426430,82.430527 96.077103,77.746582 94.036102,73.346649 
	C97.347504,76.004501 100.661957,79.032700 103.757080,82.493881 
	C103.350739,82.992119 103.163712,83.057365 102.976692,83.122612 
z"/>
<path fill="#DF0E0E" opacity="1.000000" stroke="none" 
	d="
M21.192486,30.799503 
	C22.453714,30.803173 23.409979,30.916042 24.716583,31.436523 
	C25.006269,32.899704 24.945618,33.955273 24.533901,34.999870 
	C23.102623,35.556496 22.022408,36.124096 20.748333,36.868519 
	C20.231844,37.174046 19.909214,37.302746 19.184910,37.222702 
	C17.982285,36.594379 17.181334,36.174801 16.380383,35.755222 
	C17.882763,34.139717 19.385143,32.524208 21.192486,30.799503 
z"/>
<path fill="#F0B9B9" opacity="1.000000" stroke="none" 
	d="
M136.911667,110.967163 
	C136.970505,109.216827 137.029343,107.466484 137.233734,105.301224 
	C141.301865,109.900360 140.734314,112.444725 135.179031,114.335007 
	C133.650116,114.855255 132.021194,115.081558 130.409988,114.953590 
	C131.308777,114.017151 132.235718,113.569878 133.494019,113.095749 
	C134.854126,112.368317 135.882889,111.667740 136.911667,110.967163 
z"/>
<path fill="#DF0E0E" opacity="1.000000" stroke="none" 
	d="
M14.366274,43.002693 
	C12.411717,44.087044 10.457161,45.171391 8.216559,45.915382 
	C7.961114,45.061050 7.991714,44.547081 8.022314,44.033112 
	C9.377048,42.591114 10.731780,41.149117 12.787329,40.020920 
	C14.171062,40.731602 14.853981,41.128487 15.361501,41.787643 
	C14.912827,42.367508 14.639550,42.685101 14.366274,43.002693 
z"/>
<path fill="#E33131" opacity="1.000000" stroke="none" 
	d="
M15.536900,41.525368 
	C14.853981,41.128487 14.171062,40.731602 13.096962,39.886070 
	C13.727988,38.229874 14.750198,37.022331 16.076397,35.785004 
	C17.181334,36.174801 17.982285,36.594379 19.101717,37.531845 
	C18.125765,39.208282 16.831333,40.366825 15.536900,41.525368 
z"/>
<path fill="#E75F5F" opacity="1.000000" stroke="none" 
	d="
M133.162674,113.122604 
	C132.235718,113.569878 131.308777,114.017151 130.192657,114.710411 
	C128.635788,115.080353 127.268089,115.204315 125.494011,115.408142 
	C124.318878,115.278091 123.550117,115.068184 121.771629,114.582558 
	C123.767853,113.479607 125.113770,112.735970 127.197296,112.032829 
	C129.677490,112.423088 131.420090,112.772850 133.162674,113.122604 
z"/>
<path fill="#F0B9B9" opacity="1.000000" stroke="none" 
	d="
M133.760132,93.042137 
	C131.258942,92.137978 128.832855,90.864548 126.198997,89.322510 
	C129.868149,87.524330 132.082474,89.598396 133.760132,93.042137 
z"/>
<path fill="#F0B9B9" opacity="1.000000" stroke="none" 
	d="
M123.000412,88.312325 
	C120.871346,88.339348 118.626633,88.045128 116.177879,87.447845 
	C118.277481,87.426888 120.581123,87.708977 123.000412,88.312325 
z"/>
<path fill="#E65252" opacity="1.000000" stroke="none" 
	d="
M39.953506,20.656124 
	C38.123943,20.598984 36.197437,20.222658 33.841064,19.745356 
	C35.559654,19.875233 37.708103,20.106085 39.953506,20.656124 
z"/>
<path fill="#E65252" opacity="1.000000" stroke="none" 
	d="
M4.551530,47.845837 
	C4.882699,49.557976 4.916690,51.467793 4.903891,53.854389 
	C4.656184,52.235287 4.455268,50.139397 4.551530,47.845837 
z"/>
<path fill="#F0B9B9" opacity="1.000000" stroke="none" 
	d="
M137.062225,99.920593 
	C136.796524,100.078735 136.494171,100.321861 136.494171,100.321861 
	C136.494171,100.321861 136.064835,100.267822 135.929565,100.293007 
	C135.591980,99.085678 135.389679,97.853157 135.271301,96.250137 
	C136.012802,97.173904 136.670380,98.468178 137.062225,99.920593 
z"/>
<path fill="#E12424" opacity="1.000000" stroke="none" 
	d="
M65.171906,48.395432 
	C65.451164,49.545803 65.434616,50.208206 65.180634,51.506596 
	C64.295578,52.429924 63.647968,52.717274 63.000355,53.004623 
	C62.899933,52.689793 62.719490,52.430698 62.257118,51.792229 
	C62.078167,50.709194 62.101128,50.061272 62.124092,49.413353 
	C63.041424,48.911392 63.958759,48.409428 65.171906,48.395432 
z"/>
<path fill="#F0B9B9" opacity="1.000000" stroke="none" 
	d="
M86.841675,117.256393 
	C87.377014,117.461578 87.912354,117.666763 88.724457,118.155609 
	C89.001450,118.619499 89.001686,118.799736 89.001930,118.979980 
	C87.375786,118.677269 85.749641,118.374550 84.379517,117.676384 
	C85.370918,117.272751 86.106300,117.264572 86.841675,117.256393 
z"/>
<path fill="#F0B9B9" opacity="1.000000" stroke="none" 
	d="
M72.996422,43.489323 
	C71.571426,43.907818 70.079758,43.980003 68.269745,43.980133 
	C69.610847,43.653053 71.270294,43.398033 72.996422,43.489323 
z"/>
<path fill="#E44242" opacity="1.000000" stroke="none" 
	d="
M86.873779,116.889511 
	C86.106300,117.264572 85.370918,117.272751 84.280136,117.375900 
	C83.686081,117.401123 83.447418,117.331375 82.848907,117.162918 
	C83.724617,116.323624 84.960190,115.583038 86.607971,114.948883 
	C86.982086,115.544426 86.943985,116.033539 86.873779,116.889511 
z"/>
<path fill="#E65252" opacity="1.000000" stroke="none" 
	d="
M108.307144,118.871109 
	C109.131180,118.309143 110.344444,117.886459 111.771324,117.706581 
	C111.993042,118.125694 112.001137,118.302010 112.004959,118.743027 
	C110.899246,119.008621 109.797813,119.009506 108.307144,118.871109 
z"/>
<path fill="#E65252" opacity="1.000000" stroke="none" 
	d="
M61.715302,49.368690 
	C62.101128,50.061272 62.078167,50.709194 62.044121,51.682369 
	C61.057320,51.443604 60.081593,50.879581 58.999077,50.062866 
	C59.697029,49.648121 60.501770,49.486076 61.715302,49.368690 
z"/>
<path fill="#E65252" opacity="1.000000" stroke="none" 
	d="
M7.705989,44.070259 
	C7.991714,44.547081 7.961114,45.061050 7.822067,45.957642 
	C7.068227,46.568630 6.422834,46.796997 5.501043,47.026993 
	C5.946319,46.054886 6.667991,45.081146 7.705989,44.070259 
z"/>
<path fill="#F0B9B9" opacity="1.000000" stroke="none" 
	d="
M111.192154,85.900375 
	C110.523232,86.036896 109.823601,85.899742 109.037750,85.475281 
	C109.688171,85.334206 110.424797,85.480453 111.192154,85.900375 
z"/>
<path fill="#E65252" opacity="1.000000" stroke="none" 
	d="
M42.577629,25.768595 
	C41.976822,25.177118 41.508083,24.272673 41.106281,23.026791 
	C41.685379,23.608778 42.197540,24.532200 42.577629,25.768595 
z"/>
<path fill="#E65252" opacity="1.000000" stroke="none" 
	d="
M89.396843,118.982170 
	C89.001686,118.799736 89.001450,118.619499 89.014107,118.169067 
	C90.006645,117.959572 90.986290,118.020256 92.033249,118.370468 
	C91.330956,118.768120 90.561356,118.876244 89.396843,118.982170 
z"/>
<path fill="#F0B9B9" opacity="1.000000" stroke="none" 
	d="
M90.000671,66.674568 
	C89.305389,66.225967 88.635315,65.424606 88.011215,64.295731 
	C88.713425,64.752754 89.369644,65.537277 90.000671,66.674568 
z"/>
<path fill="#F0B9B9" opacity="1.000000" stroke="none" 
	d="
M94.055519,72.616638 
	C93.353920,72.193520 92.681717,71.418945 92.016373,70.313919 
	C92.710464,70.744034 93.397690,71.504601 94.055519,72.616638 
z"/>
<path fill="#F0B9B9" opacity="1.000000" stroke="none" 
	d="
M92.045227,69.624466 
	C91.337357,69.211731 90.656303,68.445732 89.973106,67.350975 
	C90.671318,67.771873 91.371674,68.521538 92.045227,69.624466 
z"/>
<path fill="#E65252" opacity="1.000000" stroke="none" 
	d="
M44.562431,33.786362 
	C44.025520,33.467205 43.555962,32.852867 43.154579,31.919643 
	C43.691765,32.230904 44.160774,32.861042 44.562431,33.786362 
z"/>
<path fill="#E65252" opacity="1.000000" stroke="none" 
	d="
M46.656937,37.772961 
	C46.100849,37.513481 45.576355,36.958683 45.087181,36.088425 
	C45.644516,36.341194 46.166523,36.909416 46.656937,37.772961 
z"/>
<path fill="#E65252" opacity="1.000000" stroke="none" 
	d="
M43.150715,29.823782 
	C42.796841,29.464363 42.581211,28.925709 42.559517,28.227640 
	C42.931957,28.593666 43.110462,29.119106 43.150715,29.823782 
z"/>
<path fill="#E65252" opacity="1.000000" stroke="none" 
	d="
M48.682396,40.767673 
	C48.125938,40.550861 47.575123,40.039337 47.035500,39.218086 
	C47.593807,39.429890 48.140926,39.951424 48.682396,40.767673 
z"/>
<path fill="#E65252" opacity="1.000000" stroke="none" 
	d="
M30.753929,21.160372 
	C30.587444,21.752283 30.114687,22.360287 29.328697,22.987764 
	C29.492865,22.396980 29.970261,21.786722 30.753929,21.160372 
z"/>
<path fill="#E65252" opacity="1.000000" stroke="none" 
	d="
M25.065676,73.292168 
	C25.620335,73.409348 26.265223,73.808769 26.963728,74.511017 
	C26.396864,74.400703 25.776384,73.987549 25.065676,73.292168 
z"/>
<path fill="#E65252" opacity="1.000000" stroke="none" 
	d="
M37.058746,83.294952 
	C37.611225,83.408058 38.259136,83.801155 38.962791,84.496155 
	C38.397087,84.390350 37.775635,83.982651 37.058746,83.294952 
z"/>
<path fill="#E43D3D" opacity="1.000000" stroke="none" 
	d="
M103.063782,83.482452 
	C103.163712,83.057365 103.350739,82.992119 103.814880,82.819382 
	C104.550957,83.147057 105.009903,83.582230 105.582947,84.312576 
	C104.848320,84.352600 103.999588,84.097443 103.063782,83.482452 
z"/>
<path fill="#E65252" opacity="1.000000" stroke="none" 
	d="
M13.092474,63.277386 
	C13.648105,63.402523 14.281869,63.813095 14.966032,64.525375 
	C14.401155,64.405655 13.785881,63.984241 13.092474,63.277386 
z"/>
<path fill="#E65252" opacity="1.000000" stroke="none" 
	d="
M11.015060,61.323029 
	C11.595858,61.464817 12.257187,61.902802 12.963051,62.663490 
	C12.370255,62.530537 11.732924,62.074875 11.015060,61.323029 
z"/>
<path fill="#F0B9B9" opacity="1.000000" stroke="none" 
	d="
M85.265701,58.816925 
	C84.632439,58.567242 84.224930,58.142014 83.822784,57.408768 
	C84.382591,57.614292 84.937019,58.127834 85.265701,58.816925 
z"/>
<path fill="#E65252" opacity="1.000000" stroke="none" 
	d="
M5.186605,55.285210 
	C5.756923,55.468315 6.349546,55.952381 6.966879,56.750893 
	C6.397363,56.572285 5.803137,56.079224 5.186605,55.285210 
z"/>
<path fill="#E65252" opacity="1.000000" stroke="none" 
	d="
M49.077103,93.286385 
	C49.629131,93.405579 50.270119,93.806389 50.964375,94.508751 
	C50.400448,94.396202 49.783257,93.982109 49.077103,93.286385 
z"/>
<path fill="#F0B9B9" opacity="1.000000" stroke="none" 
	d="
M81.418472,52.272339 
	C80.769363,51.975967 80.295830,51.338959 79.836723,50.397507 
	C80.432121,50.705944 81.013077,51.318821 81.418472,52.272339 
z"/>
<path fill="#E65252" opacity="1.000000" stroke="none" 
	d="
M57.020187,48.655632 
	C56.447384,48.593994 55.757610,48.259628 55.003181,47.620422 
	C55.593422,47.671352 56.248322,48.027126 57.020187,48.655632 
z"/>
<path fill="#E54646" opacity="1.000000" stroke="none" 
	d="
M66.692215,44.998184 
	C66.710243,45.683323 66.418549,46.358948 65.547180,47.146797 
	C65.439178,46.502235 65.910828,45.745453 66.692215,44.998184 
z"/>
<path fill="#E65252" opacity="1.000000" stroke="none" 
	d="
M61.111664,103.268227 
	C61.653458,103.387367 62.283630,103.783897 62.967438,104.476334 
	C62.414062,104.363358 61.807049,103.954483 61.111664,103.268227 
z"/>
<path fill="#F6F2F2" opacity="1.000000" stroke="none" 
	d="
M122.022316,92.855194 
	C123.054337,92.941612 124.086349,93.028023 125.395279,93.570160 
	C125.141273,94.352646 124.583076,95.001289 124.083435,94.958946 
	C112.382942,93.967484 100.682892,92.960365 88.999001,91.793472 
	C86.940155,91.587845 84.953796,90.656563 82.933960,90.060394 
	C82.933960,90.060394 82.995834,89.997978 82.958206,89.699890 
	C81.278862,88.610786 79.637146,87.819763 77.995430,87.028732 
	C77.139343,86.493622 76.283257,85.958519 75.179878,84.842209 
	C73.602036,83.522751 72.271477,82.784492 70.940926,82.046234 
	C70.653648,81.913170 70.406052,81.727264 70.050446,80.949387 
	C68.648865,79.575348 67.394989,78.740433 66.141121,77.905518 
	C62.913559,74.738113 59.686001,71.570717 56.281090,67.769768 
	C55.051075,66.101982 53.998413,65.067749 52.945747,64.033508 
	C52.712795,63.823055 52.495644,63.597401 52.163155,62.805466 
	C50.344559,60.175564 48.657097,58.096745 46.969639,56.017925 
	C45.830891,54.400249 44.692146,52.782574 43.581429,50.509163 
	C42.393452,48.243404 41.177441,46.633381 39.961433,45.023357 
	C39.762272,44.712357 39.563107,44.401356 39.464035,43.500847 
	C38.770779,41.912704 37.977428,40.914078 37.184082,39.915451 
	C36.453979,38.508705 35.723881,37.101959 35.165688,35.201721 
	C34.614349,33.779472 33.891106,32.850719 33.167866,31.921965 
	C30.455673,28.254810 30.028873,25.138731 35.701893,23.745979 
	C37.017990,25.781294 37.859978,27.449800 38.701965,29.118307 
	C38.792347,29.533289 38.882725,29.948273 38.733429,30.899483 
	C39.661777,33.624222 40.829796,35.812733 41.997814,38.001247 
	C43.209171,39.830662 44.420525,41.660080 45.783249,44.134880 
	C47.921349,46.544552 49.908085,48.308834 51.894821,50.073112 
	C53.366116,51.029404 54.837410,51.985695 56.668873,53.415886 
	C58.269505,54.631577 59.509968,55.373367 60.944565,56.368008 
	C61.617462,57.027943 62.096226,57.435032 62.576267,57.904079 
	C62.577545,57.966042 62.629528,58.082664 62.620758,58.410095 
	C62.709080,59.163059 62.806175,59.588593 62.697720,60.225384 
	C63.971428,62.303452 65.450699,64.170250 67.146515,66.281815 
	C68.677536,68.232300 69.991997,69.938034 71.239655,71.984230 
	C72.437546,73.282806 73.702248,74.240929 75.256226,75.313049 
	C76.654999,76.365349 77.764488,77.303635 78.942810,78.555061 
	C79.932640,79.296432 80.853645,79.724663 81.817284,80.147842 
	C81.859917,80.142776 81.869110,80.228142 81.955688,80.558357 
	C85.698318,82.243973 89.354385,83.599373 93.377701,84.990005 
	C94.468475,85.168907 95.192009,85.312584 96.037567,85.785789 
	C98.577324,86.604507 100.995049,87.093697 103.412773,87.582886 
	C103.412773,87.582886 103.773827,87.664032 103.931007,88.139069 
	C106.728035,89.393013 109.367874,90.171936 112.007721,90.950851 
	C112.432968,90.993645 112.858215,91.036430 113.708351,91.502983 
	C116.762932,92.236229 119.392624,92.545708 122.022316,92.855194 
z"/>
<path fill="#F6F1F1" opacity="1.000000" stroke="none" 
	d="
M36.050430,46.968693 
	C36.355453,47.449909 36.660480,47.931122 36.779007,48.879646 
	C40.095890,54.211758 43.599262,59.076557 47.102634,63.941357 
	C47.336254,64.145767 47.548847,64.370102 47.853786,65.154076 
	C48.862968,66.510567 49.758781,67.327347 50.654594,68.144127 
	C54.985226,72.570786 59.315853,76.997444 63.703651,81.962166 
	C62.845013,83.272972 61.929203,84.045715 60.746246,84.738144 
	C59.964386,84.137283 59.449677,83.616753 58.923100,82.736984 
	C57.586094,81.599960 56.260956,80.822159 54.728142,79.897629 
	C54.418991,79.615105 54.317509,79.479317 54.164841,79.018120 
	C52.722549,77.809532 51.331432,76.926346 49.728767,75.937927 
	C49.266571,75.631279 49.074574,75.384270 48.928200,74.735168 
	C47.612579,73.584465 46.309990,72.790245 44.816887,71.859947 
	C44.386864,71.521759 44.170399,71.297417 43.965794,70.733063 
	C42.737911,69.648193 41.521214,68.881119 40.092056,68.047714 
	C39.592293,67.644249 39.304989,67.307114 38.983437,66.624550 
	C37.666763,65.502975 36.384346,64.726837 34.795280,63.678143 
	C34.023785,60.554077 33.558933,57.702572 33.192238,54.507233 
	C32.667679,51.729702 32.044964,49.296009 31.315891,46.561852 
	C31.158264,45.840595 31.106995,45.419796 31.375984,44.845177 
	C32.582195,44.363548 33.468151,44.035744 34.354103,43.707935 
	C34.354103,43.707935 34.583939,44.041782 34.461739,44.581066 
	C34.909832,45.736465 35.480133,46.352577 36.050430,46.968693 
z"/>
<path fill="#F0BCBC" opacity="1.000000" stroke="none" 
	d="
M131.904465,100.716682 
	C131.454315,101.205406 130.954147,101.416039 130.005051,101.467422 
	C129.004456,101.748611 128.452805,102.189041 127.556046,102.877228 
	C125.343956,103.434563 123.478104,103.751251 121.609726,104.052162 
	C118.036613,104.627602 114.462051,105.194069 110.445877,105.775879 
	C107.075867,105.668983 104.148071,105.550476 100.832870,105.297874 
	C99.366043,105.183563 98.286613,105.203346 96.864685,105.102631 
	C93.479324,103.884590 90.436447,102.787056 87.794479,101.528381 
	C90.104622,101.611076 92.013054,101.861504 93.923325,102.097008 
	C96.152870,102.371864 98.702530,104.159454 100.609055,100.798965 
	C103.382523,100.791695 105.721420,100.779129 108.060326,100.766571 
	C109.747604,100.711418 111.434883,100.656265 113.954453,100.626663 
	C117.709335,100.257469 120.631912,99.862724 123.892975,99.491714 
	C126.776535,99.447136 129.321625,99.378815 131.866714,99.310493 
	C131.862625,99.686531 131.858551,100.062561 131.904465,100.716682 
z"/>
<path fill="#F6F1F1" opacity="1.000000" stroke="none" 
	d="
M100.174492,100.793678 
	C98.702530,104.159454 96.152870,102.371864 93.923325,102.097008 
	C92.013054,101.861504 90.104622,101.611076 87.424423,101.430557 
	C80.779182,97.979271 74.904915,94.464661 69.012985,90.581360 
	C67.651085,89.482826 66.306839,88.752983 64.738937,87.841873 
	C64.385963,87.518784 64.256645,87.376968 64.528442,87.100220 
	C66.273750,86.651543 67.617935,86.337799 68.962112,86.024063 
	C70.156052,86.882133 71.349998,87.740204 72.768356,89.194092 
	C75.184792,90.945465 77.376808,92.101021 79.568825,93.256577 
	C79.906197,93.385956 80.243561,93.515335 80.826851,94.164902 
	C85.338631,97.342178 89.511063,100.302658 95.003975,98.975143 
	C96.415764,99.337860 97.827545,99.700577 99.647919,100.241730 
	C100.056511,100.420158 100.174492,100.793678 100.174492,100.793678 
z"/>
<path fill="#EFB3B3" opacity="1.000000" stroke="none" 
	d="
M82.980019,90.422668 
	C84.953796,90.656563 86.940155,91.587845 88.999001,91.793472 
	C100.682892,92.960365 112.382942,93.967484 124.083435,94.958946 
	C124.583076,95.001289 125.141273,94.352646 125.774857,93.653168 
	C126.905716,93.944435 127.933907,94.608421 128.753174,95.700653 
	C128.241119,96.286957 128.039902,96.529549 127.518005,96.809891 
	C125.399879,96.861557 123.704323,96.959976 121.566544,96.997658 
	C118.744659,96.998940 116.365005,97.060966 113.985352,97.122993 
	C105.939537,96.079697 97.865623,95.206924 89.865112,93.888695 
	C87.479729,93.495651 85.300018,91.854324 82.980019,90.422668 
z"/>
<path fill="#F0B8B8" opacity="1.000000" stroke="none" 
	d="
M34.321510,43.350067 
	C33.468151,44.035744 32.582195,44.363548 31.095844,44.637222 
	C28.625284,41.392334 26.755125,38.201588 24.884964,35.010838 
	C24.945618,33.955273 25.006269,32.899704 25.196785,31.465946 
	C26.721926,31.801636 28.686808,32.158066 29.402452,33.298450 
	C31.317490,36.350086 32.696777,39.737930 34.321510,43.350067 
z"/>
<path fill="#F0B8B8" opacity="1.000000" stroke="none" 
	d="
M47.080936,63.589821 
	C43.599262,59.076557 40.095890,54.211758 36.841080,49.164352 
	C40.412846,53.733929 43.736042,58.486111 47.080936,63.589821 
z"/>
<path fill="#E43D3D" opacity="1.000000" stroke="none" 
	d="
M113.989929,97.451469 
	C116.365005,97.060966 118.744659,96.998940 121.623825,97.364410 
	C122.600395,98.350586 123.077446,98.909279 123.554497,99.467972 
	C120.631912,99.862724 117.709335,100.257469 114.361900,100.519806 
	C113.956200,99.518250 113.975357,98.649094 113.989929,97.451469 
z"/>
<path fill="#F0B4B4" opacity="1.000000" stroke="none" 
	d="
M94.820984,98.648270 
	C89.511063,100.302658 85.338631,97.342178 81.044899,94.327538 
	C85.557350,95.420464 90.097672,96.870934 94.820984,98.648270 
z"/>
<path fill="#F0B4B4" opacity="1.000000" stroke="none" 
	d="
M68.869308,85.709534 
	C67.617935,86.337799 66.273750,86.651543 64.227219,87.106659 
	C62.687714,86.438179 61.850555,85.628319 61.013397,84.818459 
	C61.929203,84.045715 62.845013,83.272972 63.907799,82.222305 
	C65.628693,83.094582 67.202599,84.244789 68.869308,85.709534 
z"/>
<path fill="#E65252" opacity="1.000000" stroke="none" 
	d="
M100.609055,100.798965 
	C100.174492,100.793678 100.056511,100.420158 100.022537,100.227272 
	C102.598083,100.043205 105.207611,100.052025 107.938728,100.413704 
	C105.721420,100.779129 103.382523,100.791695 100.609055,100.798965 
z"/>
<path fill="#EFB3B3" opacity="1.000000" stroke="none" 
	d="
M46.971848,56.365631 
	C48.657097,58.096745 50.344559,60.175564 52.023167,62.616676 
	C50.334229,60.890427 48.654144,58.801884 46.971848,56.365631 
z"/>
<path fill="#EFB3B3" opacity="1.000000" stroke="none" 
	d="
M51.819839,49.750885 
	C49.908085,48.308834 47.921349,46.544552 45.946129,44.419510 
	C47.886719,45.848717 49.815792,47.638687 51.819839,49.750885 
z"/>
<path fill="#F0B4B4" opacity="1.000000" stroke="none" 
	d="
M79.395775,92.986557 
	C77.376808,92.101021 75.184792,90.945465 72.971802,89.435516 
	C75.041458,90.292931 77.132095,91.504730 79.395775,92.986557 
z"/>
<path fill="#EFB3B3" opacity="1.000000" stroke="none" 
	d="
M41.986458,37.640400 
	C40.829796,35.812733 39.661777,33.624222 38.743259,31.218456 
	C39.986874,33.093990 40.980988,35.186771 41.986458,37.640400 
z"/>
<path fill="#E33939" opacity="1.000000" stroke="none" 
	d="
M62.574989,57.842117 
	C62.096226,57.435032 61.617462,57.027943 61.013062,56.102127 
	C60.890625,55.400440 60.893833,55.217480 60.897045,55.034523 
	C61.662918,54.541794 62.428791,54.049061 63.097511,53.280479 
	C63.647968,52.717274 64.295578,52.429924 65.156143,51.837326 
	C65.369102,51.532070 65.723770,51.667076 65.858871,52.166542 
	C65.336571,53.777172 64.679161,54.888332 63.702538,56.236065 
	C63.113873,56.929127 62.844429,57.385620 62.574989,57.842117 
z"/>
<path fill="#EFB3B3" opacity="1.000000" stroke="none" 
	d="
M38.801647,28.753006 
	C37.859978,27.449800 37.017990,25.781294 36.093342,23.729645 
	C36.974232,25.026905 37.937782,26.707304 38.801647,28.753006 
z"/>
<path fill="#EFB3B3" opacity="1.000000" stroke="none" 
	d="
M39.976715,45.364761 
	C41.177441,46.633381 42.393452,48.243404 43.449150,50.202156 
	C42.189892,48.935978 41.090946,47.321072 39.976715,45.364761 
z"/>
<path fill="#EFB3B3" opacity="1.000000" stroke="none" 
	d="
M78.128120,87.334671 
	C79.637146,87.819763 81.278862,88.610786 82.931824,89.734489 
	C81.382309,89.258316 79.821564,88.449471 78.128120,87.334671 
z"/>
<path fill="#EFB3B3" opacity="1.000000" stroke="none" 
	d="
M52.959633,64.363327 
	C53.998413,65.067749 55.051075,66.101982 56.106293,67.485916 
	C55.063732,66.788124 54.018623,65.740631 52.959633,64.363327 
z"/>
<path fill="#EFB3B3" opacity="1.000000" stroke="none" 
	d="
M60.611404,54.878986 
	C60.893833,55.217480 60.890625,55.400440 60.818924,55.849277 
	C59.509968,55.373367 58.269505,54.631577 56.958961,53.571621 
	C58.034512,53.743458 59.180141,54.233456 60.611404,54.878986 
z"/>
<path fill="#EFB3B3" opacity="1.000000" stroke="none" 
	d="
M71.049240,82.360367 
	C72.271477,82.784492 73.602036,83.522751 74.980133,84.608368 
	C73.737625,84.195328 72.447586,83.434914 71.049240,82.360367 
z"/>
<path fill="#EFB3B3" opacity="1.000000" stroke="none" 
	d="
M66.205177,78.227188 
	C67.394989,78.740433 68.648865,79.575348 69.911179,80.761887 
	C68.702827,80.258629 67.486031,79.403740 66.205177,78.227188 
z"/>
<path fill="#EFB3B3" opacity="1.000000" stroke="none" 
	d="
M37.131119,40.232742 
	C37.977428,40.914078 38.770779,41.912704 39.386204,43.233353 
	C38.498241,42.553593 37.788200,41.551815 37.131119,40.232742 
z"/>
<path fill="#EFB3B3" opacity="1.000000" stroke="none" 
	d="
M33.111588,32.239510 
	C33.891106,32.850719 34.614349,33.779472 35.093048,34.866940 
	C34.250774,34.202785 33.653046,33.379917 33.111588,32.239510 
z"/>
<path fill="#F0B8B8" opacity="1.000000" stroke="none" 
	d="
M50.635807,67.836380 
	C49.758781,67.327347 48.862968,66.510567 47.984055,65.346123 
	C48.872974,65.841850 49.744995,66.685242 50.635807,67.836380 
z"/>
<path fill="#F0B8B8" opacity="1.000000" stroke="none" 
	d="
M36.050583,46.665779 
	C35.480133,46.352577 34.909832,45.736465 34.497498,44.780540 
	C35.120552,45.081448 35.585644,45.722157 36.050583,46.665779 
z"/>
<path fill="#F6F1F1" opacity="1.000000" stroke="none" 
	d="
M127.046318,111.229500 
	C122.771431,111.650391 118.392265,111.619736 114.241539,112.578262 
	C102.574188,115.272591 91.238861,114.237061 80.002274,110.549614 
	C79.062828,110.241325 78.071060,110.092453 76.722763,109.858772 
	C68.319366,103.423477 60.171673,97.147995 52.301659,90.541702 
	C38.193844,78.699265 24.253057,66.657852 10.100723,54.036057 
	C10.877697,52.283119 11.796414,51.193722 12.956079,50.351242 
	C17.813332,54.707790 22.429636,58.817421 27.060135,63.281128 
	C28.360437,64.435722 29.646547,65.236252 31.162037,66.216156 
	C31.926029,66.931122 32.460640,67.466705 33.100136,68.295700 
	C33.796425,68.743683 34.387829,68.898254 35.108955,69.361008 
	C37.159477,71.111794 39.080276,72.554398 41.111168,74.295303 
	C41.744713,74.925789 42.268169,75.257973 42.971882,75.737350 
	C43.459866,76.217415 43.767593,76.550270 44.069111,77.201180 
	C45.025894,78.081551 45.988888,78.643860 47.261963,79.310837 
	C49.738689,81.239647 51.905334,83.063797 54.067547,85.205566 
	C55.025879,86.084793 55.988640,86.646408 57.265186,87.315002 
	C65.370186,92.976723 73.161392,98.531479 80.965744,104.368546 
	C81.649521,104.786034 82.320160,104.921196 83.340424,105.081284 
	C84.754768,105.485413 85.819489,105.864616 86.924057,106.517258 
	C87.643150,106.856995 88.322395,106.923294 89.323357,107.002731 
	C90.058968,107.125389 90.472870,107.234901 90.938774,107.589874 
	C91.716759,107.809616 92.442734,107.783905 93.445648,107.717789 
	C94.065010,107.810150 94.407440,107.942924 94.830238,108.364357 
	C96.301849,108.691299 97.693085,108.729591 99.543167,108.751541 
	C104.309402,108.750809 108.616783,108.766426 113.131317,109.069801 
	C114.966896,108.888817 116.595322,108.420074 118.456924,107.847328 
	C118.858574,107.767448 119.027061,107.791573 119.390480,108.047791 
	C123.631950,107.845833 127.678490,107.411766 132.086197,106.938950 
	C131.646881,108.252464 131.254395,109.425972 130.489014,110.704590 
	C129.092865,110.949631 128.069595,111.089561 127.046318,111.229500 
z"/>
<path fill="#F3D9D9" opacity="1.000000" stroke="none" 
	d="
M15.361502,41.787643 
	C16.831333,40.366825 18.125765,39.208282 19.503391,37.740593 
	C19.909214,37.302746 20.231844,37.174046 21.090950,36.993858 
	C26.708586,41.891090 27.541523,48.617401 29.115891,55.362015 
	C28.695360,59.688072 26.649223,57.363125 25.534710,56.468307 
	C22.068537,53.685398 18.783022,50.677475 15.427430,47.756836 
	C15.139977,46.390335 14.852525,45.023834 14.465673,43.330017 
	C14.639550,42.685101 14.912827,42.367508 15.361502,41.787643 
z"/>
<path fill="#E22E2E" opacity="1.000000" stroke="none" 
	d="
M15.059906,47.839371 
	C18.783022,50.677475 22.068537,53.685398 25.534710,56.468307 
	C26.649223,57.363125 28.695360,59.688072 29.512770,55.358376 
	C30.770910,54.944660 31.562878,54.892117 32.539219,54.870369 
	C32.723595,54.901169 33.094082,54.851067 33.094082,54.851067 
	C33.558933,57.702572 34.023785,60.554077 34.798119,63.957726 
	C35.425034,64.965141 35.742458,65.420410 35.789215,66.163712 
	C35.338356,66.644005 35.158169,66.836266 34.718304,67.124115 
	C33.970833,67.480568 33.483040,67.741432 32.995251,68.002289 
	C32.460640,67.466705 31.926029,66.931122 31.078571,65.899216 
	C29.525795,64.577606 28.285868,63.752331 27.045940,62.927055 
	C22.429636,58.817421 17.813332,54.707790 13.041451,50.120667 
	C12.885875,49.643169 12.910883,49.152222 12.910883,49.152222 
	C13.504717,48.742119 14.098550,48.332012 15.059906,47.839371 
z"/>
<path fill="#F0B9B9" opacity="1.000000" stroke="none" 
	d="
M12.593290,48.977654 
	C12.910883,49.152222 12.885875,49.643169 12.800503,49.873749 
	C11.796414,51.193722 10.877697,52.283119 9.913557,53.765663 
	C9.329551,52.658161 8.790967,51.157513 8.252384,49.656864 
	C9.593489,49.372269 10.934594,49.087677 12.593290,48.977654 
z"/>
<path fill="#F3D9D9" opacity="1.000000" stroke="none" 
	d="
M82.165085,69.040306 
	C82.569878,69.969551 83.111694,71.743942 83.359306,71.703804 
	C88.840477,70.815109 90.892708,75.168373 93.465225,78.693893 
	C90.789970,78.729973 88.390450,78.366318 85.941818,77.755783 
	C85.603821,77.417175 85.314934,77.325447 84.701981,77.080872 
	C77.035896,72.904099 71.918907,66.649513 67.258972,59.532795 
	C68.498901,57.968216 69.781052,56.765236 71.063194,55.562256 
	C73.302078,55.357765 75.540962,55.153275 77.100433,55.010838 
	C76.807549,57.172562 76.561020,58.992096 76.677399,61.320076 
	C77.643158,63.247917 78.246025,64.667313 78.848885,66.086716 
	C79.274956,66.237732 79.701027,66.388741 80.506966,66.941299 
	C81.312912,67.908676 81.738998,68.474495 82.165085,69.040306 
z"/>
<path fill="#E33131" opacity="1.000000" stroke="none" 
	d="
M67.301178,59.894394 
	C71.918907,66.649513 77.035896,72.904099 84.822617,77.254654 
	C85.467613,77.791985 85.708817,77.932442 85.990929,78.002655 
	C88.390450,78.366318 90.789970,78.729973 93.542343,79.025024 
	C94.265259,80.047600 94.635315,81.138786 94.830055,82.847382 
	C94.089470,83.648804 93.524200,83.832817 92.594391,83.959595 
	C88.776268,82.677620 85.322685,81.452881 81.869110,80.228142 
	C81.869110,80.228142 81.859917,80.142776 81.735291,79.827637 
	C80.698441,79.088982 79.786209,78.665451 78.873978,78.241928 
	C77.764488,77.303635 76.654999,76.365349 75.156708,74.995758 
	C73.614082,73.590889 72.460274,72.617325 71.306458,71.643768 
	C69.991997,69.938034 68.677536,68.232300 67.165359,65.944458 
	C66.241257,64.009491 65.514870,62.656631 65.002594,60.991638 
	C65.911530,60.417793 66.606354,60.156094 67.301178,59.894394 
z"/>
<path fill="#E54646" opacity="1.000000" stroke="none" 
	d="
M67.258972,59.532795 
	C66.606354,60.156094 65.911530,60.417793 64.765961,60.827400 
	C63.844563,60.654911 63.373920,60.334518 62.903275,60.014122 
	C62.806175,59.588593 62.709080,59.163059 62.919861,58.384239 
	C63.492416,57.353798 63.757088,56.676647 64.021759,55.999496 
	C64.679161,54.888332 65.336571,53.777172 66.008530,52.283184 
	C67.133224,52.005127 68.243347,52.109894 69.755333,52.342674 
	C70.426918,53.280132 70.696648,54.089569 71.014786,55.230629 
	C69.781052,56.765236 68.498901,57.968216 67.258972,59.532795 
z"/>
<path fill="#E33131" opacity="1.000000" stroke="none" 
	d="
M123.892975,99.491714 
	C123.077446,98.909279 122.600395,98.350586 122.066055,97.425156 
	C123.704323,96.959976 125.399879,96.861557 127.655716,97.058716 
	C128.817276,97.231628 129.418549,97.108955 130.019836,96.986275 
	C130.640457,97.529556 131.261093,98.072845 131.874207,98.963310 
	C129.321625,99.378815 126.776535,99.447136 123.892975,99.491714 
z"/>
<path fill="#EFB3B3" opacity="1.000000" stroke="none" 
	d="
M121.787552,92.571915 
	C119.392624,92.545708 116.762932,92.236229 114.015221,91.598663 
	C116.449066,91.609917 119.000923,91.949272 121.787552,92.571915 
z"/>
<path fill="#EFB3B3" opacity="1.000000" stroke="none" 
	d="
M111.792557,90.672989 
	C109.367874,90.171936 106.728035,89.393013 104.071487,88.259483 
	C106.562317,88.734955 109.069862,89.565041 111.792557,90.672989 
z"/>
<path fill="#EFB3B3" opacity="1.000000" stroke="none" 
	d="
M103.196503,87.309570 
	C100.995049,87.093697 98.577324,86.604507 96.303452,85.638229 
	C96.635933,85.086990 96.824562,85.012848 97.013191,84.938698 
	C99.002205,85.637878 100.991226,86.337067 103.196503,87.309570 
z"/>
<path fill="#ED9E9E" opacity="1.000000" stroke="none" 
	d="
M78.892899,65.729713 
	C78.246025,64.667313 77.643158,63.247917 77.005585,61.443138 
	C78.045158,61.006485 79.119461,60.955215 80.599586,61.273529 
	C80.949615,62.067566 80.893814,62.492027 80.838013,62.916489 
	C80.204308,63.735226 79.570610,64.553970 78.892899,65.729713 
z"/>
<path fill="#ED9E9E" opacity="1.000000" stroke="none" 
	d="
M82.513771,68.987762 
	C81.738998,68.474495 81.312912,67.908676 80.817902,67.076157 
	C81.732651,66.859062 82.716339,66.908676 83.700020,66.958290 
	C83.420830,67.617264 83.141647,68.276245 82.513771,68.987762 
z"/>
<path fill="#E43D3D" opacity="1.000000" stroke="none" 
	d="
M96.964081,84.624725 
	C96.824562,85.012848 96.635933,85.086990 96.181419,85.308701 
	C95.192009,85.312584 94.468475,85.168907 93.376671,84.754875 
	C93.008392,84.484512 92.958931,84.016838 92.958931,84.016838 
	C93.524200,83.832817 94.089470,83.648804 94.831245,83.218338 
	C95.643494,83.418175 96.279228,83.864464 96.964081,84.624725 
z"/>
<path fill="#E33939" opacity="1.000000" stroke="none" 
	d="
M81.145279,62.913910 
	C80.893814,62.492027 80.949615,62.067566 81.003143,61.321350 
	C81.508934,61.252438 82.016998,61.505276 82.525063,61.758110 
	C82.167557,62.142521 81.810051,62.526928 81.145279,62.913910 
z"/>
<path fill="#E43D3D" opacity="1.000000" stroke="none" 
	d="
M129.906219,96.770554 
	C129.418549,97.108955 128.817276,97.231628 128.078278,97.105484 
	C128.039902,96.529549 128.241119,96.286957 128.777908,96.065994 
	C129.343735,96.085350 129.604080,96.269257 129.906219,96.770554 
z"/>
<path fill="#E43D3D" opacity="1.000000" stroke="none" 
	d="
M127.109688,111.423965 
	C128.069595,111.089561 129.092865,110.949631 130.790375,110.798836 
	C132.239731,110.515190 133.014877,110.242401 133.790009,109.969612 
	C134.609879,110.290787 135.429749,110.611969 136.580643,110.950150 
	C135.882889,111.667740 134.854126,112.368317 133.494019,113.095749 
	C131.420090,112.772850 129.677490,112.423088 127.565346,112.050110 
	C127.195793,112.026886 127.173058,111.618439 127.109688,111.423965 
z"/>
<path fill="#E11D1D" opacity="1.000000" stroke="none" 
	d="
M119.195549,107.815689 
	C119.027061,107.791573 118.858574,107.767448 118.102829,107.629868 
	C115.829872,107.662628 114.144188,107.808861 112.189468,107.843132 
	C111.576324,107.075539 111.232208,106.419899 110.888092,105.764252 
	C114.462051,105.194069 118.036613,104.627602 121.609726,104.052162 
	C123.478104,103.751251 125.343956,103.434563 127.880325,102.968842 
	C128.997131,102.795578 129.444580,102.778465 129.892014,102.761353 
	C129.922684,103.247711 129.953369,103.734077 129.592377,104.699280 
	C127.320221,105.461105 125.404312,105.604622 123.570282,106.070511 
	C122.061623,106.453743 120.650116,107.219475 119.195549,107.815689 
z"/>
<path fill="#F0B9B9" opacity="1.000000" stroke="none" 
	d="
M119.390480,108.047798 
	C120.650116,107.219475 122.061623,106.453743 123.570282,106.070511 
	C125.404312,105.604622 127.320221,105.461105 129.601028,105.064728 
	C133.074066,104.736137 134.252884,106.269180 133.855286,109.583374 
	C133.014877,110.242401 132.239731,110.515190 131.163239,110.693726 
	C131.254395,109.425972 131.646881,108.252464 132.086197,106.938950 
	C127.678490,107.411766 123.631950,107.845833 119.390480,108.047798 
z"/>
<path fill="#EC9595" opacity="1.000000" stroke="none" 
	d="
M129.912384,102.489258 
	C129.444580,102.778465 128.997131,102.795578 128.225433,102.721077 
	C128.452805,102.189041 129.004456,101.748611 129.723221,101.490631 
	C129.904495,101.854454 129.918640,102.035805 129.912384,102.489258 
z"/>
<path fill="#E33131" opacity="1.000000" stroke="none" 
	d="
M32.354843,54.839573 
	C31.562878,54.892117 30.770910,54.944660 29.582066,55.000843 
	C27.541523,48.617401 26.708586,41.891090 21.284807,36.817032 
	C22.022408,36.124096 23.102623,35.556496 24.533901,34.999870 
	C26.755125,38.201588 28.625284,41.392334 30.775585,44.791039 
	C31.106995,45.419796 31.158264,45.840595 31.221104,46.964649 
	C31.606731,50.058460 31.980787,52.449017 32.354843,54.839573 
z"/>
<path fill="#EFB3B3" opacity="1.000000" stroke="none" 
	d="
M92.594391,83.959595 
	C92.958931,84.016838 93.008392,84.484512 93.009415,84.719643 
	C89.354385,83.599373 85.698318,82.243973 81.955688,80.558357 
	C85.322685,81.452881 88.776268,82.677620 92.594391,83.959595 
z"/>
<path fill="#EFB3B3" opacity="1.000000" stroke="none" 
	d="
M62.697720,60.225384 
	C63.373920,60.334518 63.844563,60.654911 64.551842,61.139542 
	C65.514870,62.656631 66.241257,64.009491 66.948807,65.699699 
	C65.450699,64.170250 63.971428,62.303452 62.697720,60.225384 
z"/>
<path fill="#EFB3B3" opacity="1.000000" stroke="none" 
	d="
M71.239655,71.984230 
	C72.460274,72.617325 73.614082,73.590889 74.867424,74.881744 
	C73.702248,74.240929 72.437546,73.282806 71.239655,71.984230 
z"/>
<path fill="#EFB3B3" opacity="1.000000" stroke="none" 
	d="
M78.942810,78.555061 
	C79.786209,78.665451 80.698441,79.088982 81.692657,79.832703 
	C80.853645,79.724663 79.932640,79.296432 78.942810,78.555061 
z"/>
<path fill="#E33131" opacity="1.000000" stroke="none" 
	d="
M63.702541,56.236065 
	C63.757088,56.676647 63.492416,57.353798 62.928635,58.056805 
	C62.629528,58.082664 62.577545,57.966042 62.576267,57.904079 
	C62.844429,57.385620 63.113873,56.929127 63.702541,56.236065 
z"/>
<path fill="#E22E2E" opacity="1.000000" stroke="none" 
	d="
M90.886765,107.344421 
	C90.472870,107.234901 90.058968,107.125389 89.145737,106.744652 
	C88.059006,106.396896 87.471603,106.320351 86.884209,106.243820 
	C85.819489,105.864616 84.754768,105.485413 83.175629,104.820534 
	C82.091667,104.385315 81.522141,104.235771 80.952606,104.086227 
	C73.161392,98.531479 65.370186,92.976723 57.182793,86.990631 
	C55.881733,86.002182 54.976856,85.445068 54.071976,84.887955 
	C51.905334,83.063797 49.738689,81.239647 47.179142,78.986855 
	C45.882595,77.999855 44.978958,77.441490 44.075317,76.883125 
	C43.767593,76.550270 43.459866,76.217415 43.031216,75.395508 
	C42.273888,74.603317 41.637482,74.300156 41.001076,73.997002 
	C39.080276,72.554398 37.159477,71.111794 35.119110,69.023438 
	C34.992355,67.927963 34.985168,67.478241 34.977982,67.028526 
	C35.158169,66.836266 35.338356,66.644005 36.061333,66.327820 
	C37.408638,66.459267 38.213161,66.714630 39.017685,66.969986 
	C39.304989,67.307114 39.592293,67.644249 40.112000,68.354858 
	C41.555260,69.502502 42.766121,70.276672 43.976978,71.050850 
	C44.170399,71.297417 44.386864,71.521759 44.872978,72.188362 
	C46.393459,73.465797 47.667343,74.278725 48.941227,75.091660 
	C49.074574,75.384270 49.266571,75.631279 49.842793,76.243896 
	C51.517586,77.551231 52.866802,78.447372 54.216022,79.343521 
	C54.317509,79.479317 54.418991,79.615105 54.801369,80.222076 
	C56.366501,81.494255 57.650734,82.295235 58.934967,83.096214 
	C59.449677,83.616753 59.964386,84.137283 60.746246,84.738144 
	C61.850555,85.628319 62.687714,86.438179 63.826099,87.241592 
	C64.256645,87.376968 64.385963,87.518784 64.810776,88.166916 
	C66.414398,89.432175 67.722519,90.191116 69.030640,90.950050 
	C74.904915,94.464661 80.779182,97.979271 87.023514,101.591698 
	C90.436447,102.787056 93.479324,103.884590 96.786865,105.624519 
	C97.013046,106.614899 96.974571,106.962883 96.550682,107.389793 
	C95.693466,107.671051 95.221672,107.873383 94.749878,108.075706 
	C94.407440,107.942924 94.065010,107.810150 93.105347,107.492691 
	C91.954330,107.320145 91.420547,107.332283 90.886765,107.344421 
z"/>
<path fill="#F0B8B8" opacity="1.000000" stroke="none" 
	d="
M32.539219,54.870369 
	C31.980787,52.449017 31.606731,50.058460 31.327461,47.265106 
	C32.044964,49.296009 32.667679,51.729702 33.192238,54.507233 
	C33.094082,54.851067 32.723595,54.901169 32.539219,54.870369 
z"/>
<path fill="#F0B8B8" opacity="1.000000" stroke="none" 
	d="
M43.965794,70.733063 
	C42.766121,70.276672 41.555260,69.502502 40.324455,68.421188 
	C41.521214,68.881119 42.737911,69.648193 43.965794,70.733063 
z"/>
<path fill="#F0B8B8" opacity="1.000000" stroke="none" 
	d="
M38.983437,66.624550 
	C38.213161,66.714630 37.408638,66.459267 36.332001,66.039795 
	C35.742458,65.420410 35.425034,64.965141 35.104767,64.230286 
	C36.384346,64.726837 37.666763,65.502975 38.983437,66.624550 
z"/>
<path fill="#F0B8B8" opacity="1.000000" stroke="none" 
	d="
M54.164841,79.018120 
	C52.866802,78.447372 51.517586,77.551231 50.054340,76.349121 
	C51.331432,76.926346 52.722549,77.809532 54.164841,79.018120 
z"/>
<path fill="#F0B4B4" opacity="1.000000" stroke="none" 
	d="
M58.923100,82.736984 
	C57.650734,82.295235 56.366501,81.494255 55.009041,80.368813 
	C56.260956,80.822159 57.586094,81.599960 58.923100,82.736984 
z"/>
<path fill="#F0B8B8" opacity="1.000000" stroke="none" 
	d="
M48.928200,74.735168 
	C47.667343,74.278725 46.393459,73.465797 45.063484,72.324448 
	C46.309990,72.790245 47.612579,73.584465 48.928200,74.735168 
z"/>
<path fill="#E22E2E" opacity="1.000000" stroke="none" 
	d="
M110.445877,105.775879 
	C111.232208,106.419899 111.576324,107.075539 112.310104,108.047676 
	C112.699760,108.364174 112.924171,108.782043 112.924171,108.782043 
	C108.616783,108.766426 104.309402,108.750809 99.662224,108.551575 
	C99.322433,108.367950 99.547012,107.959892 99.741653,107.730072 
	C100.364288,106.810814 100.792274,106.121384 101.220268,105.431961 
	C104.148071,105.550476 107.075867,105.668983 110.445877,105.775879 
z"/>
<path fill="#E11D1D" opacity="1.000000" stroke="none" 
	d="
M100.832870,105.297874 
	C100.792274,106.121384 100.364288,106.810814 99.403145,107.698410 
	C98.225357,107.701347 97.580727,107.506104 96.936096,107.310867 
	C96.974571,106.962883 97.013046,106.614899 97.129349,105.745026 
	C98.286613,105.203346 99.366043,105.183563 100.832870,105.297874 
z"/>
<path fill="#F0B4B4" opacity="1.000000" stroke="none" 
	d="
M69.012985,90.581360 
	C67.722519,90.191116 66.414398,89.432175 65.034431,88.348190 
	C66.306839,88.752983 67.651085,89.482826 69.012985,90.581360 
z"/>
<path fill="#F0B9B9" opacity="1.000000" stroke="none" 
	d="
M113.131317,109.069801 
	C112.924171,108.782043 112.699760,108.364174 112.579132,108.159630 
	C114.144188,107.808861 115.829872,107.662628 117.869659,107.733864 
	C116.595322,108.420074 114.966896,108.888817 113.131317,109.069801 
z"/>
<path fill="#F0B9B9" opacity="1.000000" stroke="none" 
	d="
M96.550682,107.389793 
	C97.580727,107.506104 98.225357,107.701347 99.208496,107.928238 
	C99.547012,107.959892 99.322433,108.367950 99.203384,108.567917 
	C97.693085,108.729591 96.301849,108.691299 94.830246,108.364357 
	C95.221672,107.873383 95.693466,107.671051 96.550682,107.389793 
z"/>
<path fill="#F0B9B9" opacity="1.000000" stroke="none" 
	d="
M54.067543,85.205566 
	C54.976856,85.445068 55.881733,86.002182 56.869003,86.883659 
	C55.988640,86.646408 55.025879,86.084793 54.067543,85.205566 
z"/>
<path fill="#F0B9B9" opacity="1.000000" stroke="none" 
	d="
M27.060135,63.281128 
	C28.285868,63.752331 29.525795,64.577606 30.849190,65.719833 
	C29.646547,65.236252 28.360437,64.435722 27.060135,63.281128 
z"/>
<path fill="#F0B9B9" opacity="1.000000" stroke="none" 
	d="
M44.069115,77.201180 
	C44.978958,77.441490 45.882595,77.999855 46.869057,78.882187 
	C45.988888,78.643860 45.025894,78.081551 44.069115,77.201180 
z"/>
<path fill="#F0B9B9" opacity="1.000000" stroke="none" 
	d="
M90.938774,107.589874 
	C91.420547,107.332283 91.954330,107.320145 92.828415,107.533096 
	C92.442734,107.783905 91.716759,107.809616 90.938774,107.589874 
z"/>
<path fill="#F0B9B9" opacity="1.000000" stroke="none" 
	d="
M86.924057,106.517258 
	C87.471603,106.320351 88.059006,106.396896 88.824020,106.731514 
	C88.322395,106.923294 87.643150,106.856995 86.924057,106.517258 
z"/>
<path fill="#F0B9B9" opacity="1.000000" stroke="none" 
	d="
M80.965744,104.368546 
	C81.522141,104.235771 82.091667,104.385315 82.825996,104.795609 
	C82.320160,104.921196 81.649521,104.786034 80.965744,104.368546 
z"/>
<path fill="#E43939" opacity="1.000000" stroke="none" 
	d="
M41.111168,74.295303 
	C41.637482,74.300156 42.273888,74.603317 42.850960,75.248314 
	C42.268169,75.257973 41.744713,74.925789 41.111168,74.295303 
z"/>
<path fill="#E43939" opacity="1.000000" stroke="none" 
	d="
M34.718300,67.124115 
	C34.985168,67.478241 34.992355,67.927963 34.989388,68.715248 
	C34.387829,68.898254 33.796425,68.743683 33.100136,68.295700 
	C33.483040,67.741432 33.970833,67.480568 34.718300,67.124115 
z"/>
<path fill="#E33939" opacity="1.000000" stroke="none" 
	d="
M85.941818,77.755783 
	C85.708817,77.932442 85.467613,77.791985 85.146683,77.407501 
	C85.314934,77.325447 85.603821,77.417175 85.941818,77.755783 
z"/>
</svg>